<?xml version="1.0" encoding="UTF-8" standalone="no" ?>
<!DOCTYPE svg PUBLIC "-//W3C//DTD SVG 1.1//EN" "http://www.w3.org/Graphics/SVG/1.1/DTD/svg11.dtd">
<svg xmlns="http://www.w3.org/2000/svg" xmlns:xlink="http://www.w3.org/1999/xlink" version="1.1" width="1080" height="1080" viewBox="0 0 1080 1080" xml:space="preserve">
<desc>Created with Fabric.js 5.2.4</desc>
<defs>
</defs>
<rect x="0" y="0" width="100%" height="100%" fill="transparent"></rect>
<g transform="matrix(1 0 0 1 540 540)" id="8ef09db7-604d-46a1-a0ab-2deb8f94b098"  >
</g>
<g transform="matrix(1 0 0 1 540 540)" id="24fc6d0d-0769-4b24-b953-2daffdf47848"  >
<rect style="stroke: none; stroke-width: 1; stroke-dasharray: none; stroke-linecap: butt; stroke-dashoffset: 0; stroke-linejoin: miter; stroke-miterlimit: 4; fill: rgb(255,255,255); fill-rule: nonzero; opacity: 1; visibility: hidden;" vector-effect="non-scaling-stroke"  x="-540" y="-540" rx="0" ry="0" width="1080" height="1080" />
</g>
<g transform="matrix(15.09 0 0 15.09 540 540)" id="c5823849-f07b-4175-bbe7-5261c41cef5d"  >
<circle style="stroke: rgb(0,0,0); stroke-width: 0; stroke-dasharray: none; stroke-linecap: butt; stroke-dashoffset: 0; stroke-linejoin: miter; stroke-miterlimit: 4; fill: rgb(255,248,248); fill-rule: nonzero; opacity: 1;" vector-effect="non-scaling-stroke"  cx="0" cy="0" r="35" />
</g>
<g transform="matrix(1.61 0 0 1.61 519.97 618.63)"  >
<g style="" vector-effect="non-scaling-stroke"   >
		<g transform="matrix(0.13 0 0 -0.13 90.03 -112.41)"  >
<path style="stroke: none; stroke-width: 1; stroke-dasharray: none; stroke-linecap: butt; stroke-dashoffset: 0; stroke-linejoin: miter; stroke-miterlimit: 4; fill: rgb(0,0,0); fill-rule: nonzero; opacity: 1;" vector-effect="non-scaling-stroke"  transform=" translate(-3293.62, -2829.25)" d="M 4544 3940 C 4531 3927 4422 3910 4403 3917 C 4390 3922 4388 3919 4393 3901 C 4397 3884 4395 3880 4384 3884 C 4377 3887 4364 3882 4358 3874 C 4351 3865 4337 3850 4328 3839 C 4303 3812 4305 3796 4330 3810 C 4344 3817 4350 3817 4350 3810 C 4350 3805 4345 3800 4339 3800 C 4332 3800 4321 3792 4314 3783 C 4302 3767 4301 3770 4300 3807 C 4300 3842 4306 3854 4340 3888 C 4394 3941 4390 3947 4330 3904 C 4303 3885 4278 3869 4275 3869 C 4272 3870 4268 3870 4265 3870 C 4263 3870 4265 3858 4270 3844 C 4279 3822 4278 3819 4265 3824 C 4256 3827 4250 3824 4250 3814 C 4250 3806 4246 3801 4241 3805 C 4236 3808 4229 3806 4225 3800 C 4222 3795 4207 3790 4193 3790 C 4176 3790 4170 3786 4173 3777 C 4176 3769 4173 3763 4167 3763 C 4160 3763 4147 3759 4138 3755 C 4127 3751 4120 3752 4120 3759 C 4120 3765 4116 3770 4110 3770 C 4096 3770 4098 3757 4116 3734 C 4124 3724 4129 3721 4125 3728 C 4122 3734 4122 3740 4125 3740 C 4132 3740 4190 3711 4190 3707 C 4190 3706 4175 3705 4158 3705 C 4136 3705 4126 3701 4128 3692 C 4130 3682 4126 3682 4109 3690 C 4092 3700 4089 3699 4091 3683 C 4093 3673 4091 3659 4086 3651 C 4080 3642 4083 3633 4095 3623 C 4110 3613 4111 3607 4102 3598 C 4093 3589 4084 3589 4063 3599 C 4039 3609 4041 3606 4075 3576 C 4097 3557 4109 3541 4103 3540 C 4096 3540 4090 3545 4090 3552 C 4090 3558 4087 3560 4083 3557 C 4080 3553 4066 3557 4052 3566 C 4039 3575 4031 3577 4034 3571 C 4038 3565 4036 3560 4030 3560 C 4024 3560 4022 3555 4025 3549 C 4029 3543 4023 3536 4012 3533 C 3994 3529 3993 3525 4002 3504 C 4008 3491 4017 3480 4021 3480 C 4026 3480 4027 3473 4024 3465 C 4020 3457 4007 3450 3994 3450 C 3967 3450 3962 3465 3986 3474 C 3994 3477 3998 3485 3994 3491 C 3989 3499 3984 3497 3978 3486 C 3963 3458 3950 3468 3950 3509 C 3950 3541 3956 3552 3990 3581 C 4025 3611 4030 3620 4030 3657 C 4030 3688 4035 3702 4049 3709 C 4059 3715 4069 3717 4072 3715 C 4074 3713 4081 3720 4088 3730 C 4104 3756 4086 3756 4054 3731 C 4039 3719 4021 3714 4007 3717 C 3989 3722 3987 3720 3998 3709 C 4013 3693 4014 3664 4000 3655 C 3994 3651 3991 3654 3992 3661 C 3994 3667 3989 3675 3981 3678 C 3973 3681 3970 3678 3974 3671 C 3978 3665 3975 3660 3966 3660 C 3950 3660 3927 3627 3936 3617 C 3945 3608 3901 3598 3889 3606 C 3881 3611 3880 3609 3885 3600 C 3891 3590 3889 3588 3876 3593 C 3866 3597 3856 3600 3854 3600 C 3852 3600 3850 3607 3850 3615 C 3850 3635 3843 3634 3816 3608 C 3803 3595 3783 3578 3770 3570 C 3732 3545 3719 3528 3724 3513 C 3727 3505 3726 3501 3722 3504 C 3709 3512 3670 3481 3670 3464 C 3670 3455 3663 3450 3653 3452 C 3643 3454 3636 3450 3637 3443 C 3639 3436 3631 3433 3620 3435 C 3593 3440 3595 3424 3623 3415 C 3641 3409 3642 3407 3628 3403 C 3619 3401 3608 3390 3605 3379 C 3600 3365 3593 3361 3579 3365 C 3556 3373 3555 3362 3576 3331 C 3592 3308 3592 3308 3570 3320 C 3544 3334 3527 3323 3553 3309 C 3562 3303 3570 3294 3570 3289 C 3570 3283 3557 3287 3540 3297 C 3524 3306 3510 3318 3510 3322 C 3510 3338 3490 3329 3479 3308 C 3470 3289 3470 3287 3481 3298 C 3488 3304 3498 3310 3502 3310 C 3516 3310 3510 3288 3493 3273 C 3483 3265 3480 3261 3487 3265 C 3494 3268 3504 3261 3510 3250 C 3518 3236 3518 3230 3510 3230 C 3504 3230 3492 3223 3484 3215 C 3475 3207 3473 3200 3479 3200 C 3484 3200 3492 3205 3495 3210 C 3499 3216 3506 3218 3511 3214 C 3517 3211 3511 3200 3499 3189 C 3484 3176 3482 3170 3491 3170 C 3499 3170 3507 3159 3508 3145 L 3510 3120 L 3475 3137 C 3456 3146 3437 3150 3433 3145 C 3428 3141 3431 3135 3438 3133 C 3444 3130 3447 3123 3443 3117 C 3439 3110 3435 3080 3434 3050 C 3433 3020 3427 2982 3421 2967 C 3405 2927 3407 2890 3425 2890 C 3435 2890 3440 2901 3441 2928 C 3443 2961 3443 2962 3447 2935 C 3449 2919 3459 2899 3468 2891 C 3483 2879 3483 2878 3463 2883 C 3440 2888 3425 2869 3439 2854 C 3444 2849 3450 2827 3453 2805 C 3456 2783 3456 2771 3453 2778 C 3442 2805 3428 2788 3432 2751 C 3434 2729 3432 2714 3428 2716 C 3423 2719 3420 2710 3420 2696 C 3420 2679 3414 2670 3404 2670 C 3394 2670 3391 2664 3395 2651 C 3401 2631 3382 2580 3368 2580 C 3364 2580 3360 2574 3360 2567 C 3360 2533 3296 2440 3273 2440 C 3263 2440 3263 2393 3273 2383 C 3277 2380 3280 2370 3280 2361 C 3279 2348 3277 2348 3265 2364 C 3252 2382 3250 2382 3244 2366 C 3239 2352 3235 2351 3228 2362 C 3221 2372 3217 2372 3206 2358 C 3199 2348 3190 2343 3187 2347 C 3183 2350 3175 2348 3168 2343 C 3161 2337 3135 2332 3110 2333 C 3086 2333 3064 2328 3062 2321 C 3060 2315 3054 2313 3049 2316 C 3035 2325 2990 2328 2990 2321 C 2990 2309 2845 2317 2815 2330 C 2799 2337 2779 2342 2773 2341 C 2765 2340 2760 2350 2760 2363 C 2760 2388 2735 2418 2723 2406 C 2720 2403 2722 2400 2728 2400 C 2735 2400 2740 2383 2740 2357 C 2740 2317 2737 2312 2705 2297 C 2660 2276 2620 2283 2620 2313 C 2620 2329 2623 2331 2632 2322 C 2639 2315 2659 2310 2677 2310 L 2711 2310 L 2696 2339 C 2687 2355 2684 2370 2687 2374 C 2691 2377 2681 2380 2667 2380 C 2639 2380 2630 2395 2653 2403 C 2662 2406 2661 2412 2650 2424 C 2636 2439 2631 2437 2598 2410 C 2569 2386 2561 2383 2556 2395 C 2553 2404 2560 2420 2571 2431 C 2583 2443 2589 2458 2586 2467 C 2582 2478 2584 2480 2595 2476 C 2606 2472 2610 2477 2610 2493 C 2610 2505 2606 2511 2602 2505 C 2592 2491 2568 2492 2553 2507 C 2532 2526 2538 2533 2571 2526 L 2601 2520 L 2579 2551 C 2568 2567 2555 2578 2552 2575 C 2548 2572 2552 2564 2560 2559 C 2572 2550 2572 2549 2557 2554 C 2547 2557 2523 2553 2503 2545 C 2472 2532 2464 2532 2453 2543 C 2441 2555 2443 2556 2462 2555 C 2475 2554 2488 2558 2492 2564 C 2503 2580 2502 2602 2490 2595 C 2485 2592 2480 2595 2480 2602 C 2480 2612 2478 2612 2471 2601 C 2466 2594 2457 2591 2451 2594 C 2435 2604 2438 2620 2456 2620 C 2464 2620 2468 2625 2465 2630 C 2462 2636 2448 2640 2434 2640 C 2412 2640 2410 2642 2421 2662 C 2433 2684 2433 2684 2406 2667 C 2384 2652 2380 2652 2380 2665 C 2380 2673 2385 2680 2390 2680 C 2396 2680 2400 2685 2400 2690 C 2400 2696 2393 2700 2385 2700 C 2377 2700 2370 2704 2370 2708 C 2370 2713 2352 2722 2330 2729 C 2306 2736 2290 2747 2290 2756 C 2290 2764 2294 2769 2299 2766 C 2304 2763 2310 2769 2313 2781 C 2317 2797 2315 2800 2298 2794 C 2285 2790 2280 2792 2284 2798 C 2287 2803 2280 2810 2269 2813 C 2256 2817 2249 2824 2253 2833 C 2258 2847 2236 2872 2209 2883 C 2197 2888 2197 2889 2209 2889 C 2220 2890 2220 2893 2209 2907 C 2199 2918 2199 2921 2208 2916 C 2215 2912 2220 2914 2220 2920 C 2220 2928 2211 2930 2194 2926 C 2162 2918 2127 2928 2136 2942 C 2141 2949 2137 2951 2127 2947 C 2117 2943 2110 2946 2110 2952 C 2110 2958 2107 2960 2104 2957 C 2100 2953 2102 2944 2108 2937 C 2125 2917 2111 2908 2092 2926 C 2083 2936 2068 2939 2054 2936 C 2039 2932 2030 2934 2030 2941 C 2030 2947 2021 2950 2010 2947 C 2000 2944 1983 2948 1973 2956 C 1956 2969 1956 2969 1978 2970 C 1990 2970 2000 2974 2000 2979 C 2000 2993 1959 2979 1953 2964 C 1946 2945 1930 2947 1914 2968 C 1902 2984 1901 2983 1900 2963 C 1900 2945 1894 2940 1875 2940 C 1861 2940 1850 2943 1850 2948 C 1850 2952 1837 2955 1820 2956 C 1804 2957 1793 2954 1795 2950 C 1797 2946 1788 2937 1775 2930 C 1762 2923 1753 2913 1756 2909 C 1759 2904 1754 2903 1746 2906 C 1737 2909 1730 2919 1730 2927 C 1730 2936 1714 2928 1685 2903 C 1656 2878 1641 2857 1640 2841 C 1640 2824 1644 2819 1656 2824 C 1665 2827 1674 2830 1676 2830 C 1679 2830 1678 2835 1674 2841 C 1670 2848 1674 2850 1686 2847 C 1737 2832 1769 2830 1775 2839 C 1778 2845 1774 2850 1766 2850 C 1757 2850 1750 2855 1750 2861 C 1750 2867 1759 2870 1770 2867 C 1782 2864 1790 2867 1790 2874 C 1790 2880 1798 2886 1808 2886 C 1822 2886 1826 2879 1824 2860 C 1822 2846 1823 2843 1826 2852 C 1833 2873 1875 2871 1911 2847 C 1933 2832 1939 2832 1955 2844 C 1970 2855 1972 2861 1962 2872 C 1946 2892 1958 2902 1981 2889 C 1994 2882 2000 2868 2000 2844 C 2000 2815 2003 2809 2016 2814 C 2025 2817 2039 2820 2048 2820 C 2061 2820 2060 2823 2044 2835 C 2034 2843 2030 2850 2037 2850 C 2043 2850 2058 2838 2069 2823 C 2086 2800 2091 2798 2099 2810 C 2106 2819 2105 2829 2098 2837 C 2090 2847 2093 2850 2109 2850 C 2124 2850 2130 2856 2130 2871 C 2130 2886 2125 2890 2115 2886 C 2107 2883 2100 2885 2100 2890 C 2100 2896 2107 2900 2116 2900 C 2124 2900 2128 2905 2125 2910 C 2116 2925 2133 2922 2158 2904 C 2174 2893 2180 2879 2180 2851 C 2180 2819 2175 2811 2148 2797 L 2115 2780 L 2145 2783 C 2166 2784 2174 2781 2172 2772 C 2171 2764 2179 2756 2190 2753 C 2201 2750 2210 2744 2210 2739 C 2210 2734 2217 2730 2226 2730 C 2234 2730 2238 2726 2235 2720 C 2232 2714 2236 2713 2245 2716 C 2254 2720 2259 2729 2256 2736 C 2253 2744 2255 2750 2260 2750 C 2266 2750 2270 2732 2270 2710 C 2270 2688 2274 2670 2278 2670 C 2283 2670 2293 2658 2300 2644 C 2309 2627 2320 2620 2332 2623 C 2344 2627 2350 2623 2350 2610 C 2350 2577 2362 2559 2395 2546 C 2422 2534 2429 2525 2435 2491 C 2440 2458 2445 2451 2455 2460 C 2466 2469 2467 2467 2463 2451 C 2460 2439 2462 2430 2466 2430 C 2482 2430 2546 2365 2560 2335 L 2573 2305 L 2581 2335 L 2588 2365 L 2589 2337 C 2590 2318 2594 2311 2602 2316 C 2609 2321 2611 2318 2607 2307 C 2598 2282 2625 2268 2687 2265 C 2759 2262 2753 2264 2780 2240 C 2793 2229 2812 2220 2823 2220 C 2835 2220 2840 2215 2837 2206 C 2829 2186 2888 2161 2900 2180 C 2904 2187 2912 2190 2918 2186 C 2923 2183 2931 2188 2934 2197 C 2940 2212 2942 2212 2950 2200 C 2956 2192 2960 2190 2960 2196 C 2960 2201 2955 2211 2948 2218 C 2941 2225 2940 2230 2946 2230 C 2951 2230 2961 2225 2968 2218 C 2983 2203 2984 2215 2970 2241 C 2963 2254 2963 2260 2970 2260 C 2984 2260 2983 2287 2968 2293 C 2958 2297 2958 2299 2968 2299 C 2975 2300 2990 2295 3001 2290 C 3025 2277 3027 2224 3003 2198 C 2988 2181 2988 2180 3018 2191 C 3036 2197 3053 2206 3056 2211 C 3059 2217 3068 2216 3078 2208 C 3091 2197 3093 2197 3088 2212 C 3079 2234 3089 2241 3112 2229 C 3143 2212 3165 2239 3153 2277 C 3148 2292 3138 2305 3132 2305 C 3126 2305 3115 2311 3108 2319 C 3097 2330 3099 2331 3120 2325 C 3185 2305 3190 2301 3196 2258 C 3200 2234 3206 2222 3209 2231 C 3222 2264 3250 2293 3272 2295 C 3285 2296 3300 2298 3307 2299 C 3314 2299 3317 2306 3314 2313 C 3311 2322 3317 2326 3332 2326 C 3348 2325 3354 2330 3352 2341 C 3351 2350 3356 2360 3365 2364 C 3373 2367 3380 2365 3380 2359 C 3380 2353 3385 2352 3391 2356 C 3399 2361 3397 2366 3386 2372 C 3377 2377 3372 2386 3375 2391 C 3379 2396 3386 2398 3391 2395 C 3403 2387 3402 2393 3387 2422 C 3380 2436 3370 2445 3363 2443 C 3348 2438 3337 2457 3347 2473 C 3351 2479 3354 2494 3353 2505 C 3352 2520 3353 2521 3356 2508 C 3359 2499 3385 2477 3413 2459 C 3441 2442 3459 2434 3453 2442 C 3440 2457 3446 2496 3464 2519 C 3476 2535 3481 2562 3470 2555 C 3466 2552 3460 2556 3457 2564 C 3450 2581 3391 2578 3379 2559 C 3373 2549 3370 2549 3370 2557 C 3370 2564 3388 2581 3410 2595 C 3443 2616 3454 2618 3471 2610 C 3492 2598 3530 2605 3530 2621 C 3530 2627 3526 2628 3520 2625 C 3515 2622 3510 2626 3510 2634 C 3510 2644 3519 2650 3533 2650 C 3566 2650 3578 2662 3569 2685 C 3562 2704 3561 2704 3561 2683 C 3560 2667 3555 2663 3539 2667 C 3519 2673 3519 2674 3550 2703 C 3577 2728 3584 2730 3595 2719 C 3602 2711 3610 2689 3612 2670 C 3615 2635 3603 2623 3546 2605 C 3536 2602 3530 2597 3533 2594 C 3536 2591 3556 2594 3578 2600 C 3609 2610 3621 2620 3634 2651 C 3644 2672 3649 2694 3645 2700 C 3642 2705 3643 2710 3649 2710 C 3655 2710 3657 2717 3653 2726 C 3649 2737 3644 2738 3637 2731 C 3631 2725 3621 2720 3615 2720 C 3610 2720 3611 2724 3618 2728 C 3635 2739 3622 2770 3600 2770 C 3576 2770 3567 2807 3588 2821 C 3604 2831 3604 2831 3588 2826 C 3578 2823 3570 2828 3567 2841 C 3564 2851 3565 2858 3569 2855 C 3573 2853 3576 2861 3575 2872 C 3574 2884 3567 2896 3559 2898 C 3551 2901 3548 2899 3552 2895 C 3561 2886 3522 2855 3513 2864 C 3509 2867 3511 2870 3516 2870 C 3521 2870 3526 2879 3527 2890 C 3528 2901 3525 2910 3519 2910 C 3507 2910 3507 2947 3519 2954 C 3524 2957 3533 2953 3540 2945 C 3558 2923 3572 2927 3558 2949 C 3551 2960 3543 2967 3539 2964 C 3535 2962 3527 2966 3521 2974 C 3509 2989 3516 3020 3532 3020 C 3539 3020 3538 3025 3531 3034 C 3513 3055 3550 3128 3571 3114 C 3576 3111 3580 3119 3581 3132 C 3581 3145 3584 3149 3587 3143 C 3590 3133 3595 3134 3607 3145 C 3618 3156 3619 3164 3612 3173 C 3599 3188 3599 3248 3611 3256 C 3616 3259 3617 3254 3614 3246 C 3610 3236 3613 3230 3621 3230 C 3631 3230 3632 3228 3623 3222 C 3606 3211 3624 3186 3644 3193 C 3653 3197 3660 3209 3660 3220 C 3660 3231 3666 3240 3674 3240 C 3682 3240 3692 3245 3696 3252 C 3700 3259 3699 3260 3692 3256 C 3685 3252 3680 3253 3680 3258 C 3680 3263 3692 3272 3707 3279 L 3735 3292 L 3713 3310 C 3688 3330 3671 3380 3689 3380 C 3695 3380 3700 3368 3700 3354 C 3700 3336 3704 3329 3714 3333 C 3721 3336 3733 3333 3739 3327 C 3747 3319 3750 3321 3750 3334 C 3750 3343 3755 3348 3760 3345 C 3766 3342 3770 3346 3770 3354 C 3770 3363 3777 3370 3785 3370 C 3793 3370 3800 3374 3800 3379 C 3800 3384 3811 3390 3825 3392 C 3841 3396 3850 3392 3853 3381 C 3856 3371 3858 3373 3859 3388 C 3860 3416 3904 3440 3922 3422 C 3929 3415 3942 3410 3952 3410 C 3968 3410 3968 3413 3958 3430 C 3949 3444 3944 3446 3938 3437 C 3932 3428 3930 3428 3930 3437 C 3930 3458 3945 3459 3970 3440 C 3990 3425 3992 3420 3981 3406 C 3970 3393 3970 3390 3982 3390 C 4008 3390 4003 3330 3975 3303 C 3961 3289 3949 3268 3948 3256 C 3947 3245 3946 3228 3945 3220 C 3945 3212 3941 3200 3937 3194 C 3933 3186 3939 3183 3955 3184 C 3970 3184 3975 3189 3969 3195 C 3964 3200 3960 3221 3960 3241 C 3960 3273 3966 3283 4000 3310 L 4040 3341 L 4080 3313 C 4134 3274 4134 3220 4079 3220 C 4074 3220 4070 3227 4070 3235 C 4070 3243 4066 3250 4060 3250 C 4055 3250 4050 3260 4050 3273 C 4049 3307 4033 3274 4026 3225 C 4023 3203 4021 3184 4020 3183 C 4020 3181 4013 3180 4004 3180 C 3991 3180 3990 3177 3999 3166 C 4009 3154 4007 3149 3990 3140 C 3978 3134 3971 3126 3974 3123 C 3977 3120 3969 3109 3957 3099 C 3937 3083 3937 3081 3953 3080 C 3970 3080 3970 3078 3956 3065 C 3940 3049 3944 3020 3963 3020 C 3969 3020 3971 3017 3967 3014 C 3964 3011 3951 3015 3938 3024 C 3901 3050 3896 3042 3927 3007 L 3955 2974 L 3991 3014 L 4027 3054 L 4023 3024 C 4019 2996 4021 2994 4064 2982 C 4096 2974 4110 2965 4111 2953 C 4111 2942 4114 2940 4117 2948 C 4125 2968 4142 2961 4135 2940 C 4130 2924 4133 2920 4152 2920 C 4165 2920 4180 2916 4186 2912 C 4199 2903 4230 2842 4230 2825 C 4230 2818 4244 2807 4260 2800 C 4291 2787 4297 2776 4280 2765 C 4275 2762 4270 2749 4270 2738 C 4270 2705 4248 2640 4238 2646 C 4233 2649 4230 2648 4231 2643 C 4235 2621 4229 2589 4222 2594 C 4207 2603 4189 2583 4185 2551 C 4183 2533 4169 2507 4155 2492 C 4139 2477 4131 2459 4133 2448 C 4136 2438 4135 2432 4130 2435 C 4126 2438 4120 2431 4117 2420 C 4114 2409 4105 2400 4096 2400 C 4080 2400 4064 2358 4074 2341 C 4077 2336 4067 2319 4050 2303 C 4034 2288 4020 2268 4020 2260 C 4020 2247 4019 2247 4010 2260 C 4002 2273 4000 2272 4000 2258 C 4000 2248 4005 2240 4011 2240 C 4016 2240 4019 2236 4015 2230 C 4012 2225 4003 2223 3995 2227 C 3985 2230 3980 2225 3980 2211 C 3980 2199 3976 2190 3970 2190 C 3965 2190 3956 2172 3950 2149 C 3944 2127 3932 2106 3924 2103 C 3916 2100 3911 2091 3914 2084 C 3917 2076 3915 2070 3910 2070 C 3905 2070 3898 2060 3894 2048 C 3890 2035 3876 2014 3863 2001 C 3850 1987 3841 1971 3844 1964 C 3847 1957 3842 1954 3829 1957 C 3819 1960 3810 1958 3810 1953 C 3810 1947 3801 1933 3790 1920 C 3779 1907 3770 1891 3770 1885 C 3770 1878 3762 1873 3753 1874 C 3743 1874 3734 1867 3732 1857 C 3729 1840 3732 1839 3760 1845 C 3785 1850 3791 1849 3788 1839 C 3781 1821 3711 1826 3689 1846 C 3667 1865 3657 1864 3641 1838 C 3627 1816 3628 1816 3652 1832 C 3677 1849 3678 1848 3678 1822 C 3678 1807 3673 1787 3668 1776 C 3661 1764 3662 1754 3668 1748 C 3674 1742 3676 1730 3673 1721 C 3670 1710 3675 1713 3688 1728 C 3699 1740 3723 1753 3742 1757 C 3761 1761 3791 1780 3813 1801 C 3833 1822 3850 1837 3850 1833 C 3850 1830 3857 1833 3865 1840 C 3876 1849 3878 1856 3870 1864 C 3865 1869 3860 1890 3860 1909 C 3860 1934 3863 1941 3869 1931 C 3874 1923 3876 1911 3873 1903 C 3870 1896 3875 1890 3884 1890 C 3893 1890 3900 1895 3900 1900 C 3900 1906 3918 1927 3940 1948 C 3977 1984 3978 1988 3962 2004 C 3946 2020 3946 2021 3963 2014 C 3972 2011 3980 2012 3980 2018 C 3980 2023 3988 2027 3997 2026 C 4009 2025 4016 2033 4018 2050 C 4020 2064 4034 2085 4048 2097 L 4075 2119 L 4050 2129 C 4036 2134 4028 2140 4033 2141 C 4037 2142 4045 2144 4050 2145 C 4056 2146 4065 2148 4070 2149 C 4076 2149 4080 2159 4080 2170 C 4080 2181 4085 2190 4090 2190 C 4096 2190 4100 2185 4100 2179 C 4100 2173 4107 2175 4115 2184 C 4123 2192 4130 2210 4130 2224 C 4130 2244 4134 2248 4148 2244 C 4164 2239 4164 2239 4148 2253 C 4123 2273 4125 2277 4163 2272 C 4196 2268 4196 2268 4192 2308 C 4190 2333 4193 2351 4201 2355 C 4209 2360 4211 2359 4206 2352 C 4202 2345 4205 2340 4213 2340 C 4221 2340 4231 2347 4234 2356 C 4238 2366 4236 2369 4227 2364 C 4218 2358 4218 2360 4228 2372 C 4237 2383 4238 2390 4230 2395 C 4214 2405 4218 2420 4235 2414 C 4245 2410 4250 2414 4250 2429 C 4250 2441 4255 2450 4260 2450 C 4276 2450 4272 2494 4254 2516 C 4246 2526 4242 2529 4246 2521 C 4251 2511 4249 2509 4241 2515 C 4231 2521 4232 2526 4244 2538 C 4257 2551 4261 2551 4276 2539 C 4288 2530 4291 2529 4286 2538 C 4282 2544 4283 2550 4289 2550 C 4294 2550 4300 2560 4302 2573 C 4304 2587 4311 2594 4322 2594 C 4336 2593 4338 2596 4329 2611 C 4321 2627 4323 2630 4340 2630 C 4351 2630 4360 2635 4360 2641 C 4360 2647 4366 2650 4373 2647 C 4390 2641 4414 2666 4397 2674 C 4390 2677 4394 2679 4405 2679 C 4463 2676 4481 2691 4438 2706 C 4417 2714 4418 2715 4448 2720 L 4480 2725 L 4458 2757 C 4445 2775 4429 2790 4423 2790 C 4416 2790 4410 2797 4410 2806 C 4410 2818 4416 2821 4431 2817 C 4448 2813 4450 2814 4441 2823 C 4435 2829 4430 2853 4430 2876 C 4430 2900 4425 2921 4418 2924 C 4411 2927 4414 2928 4426 2925 C 4438 2922 4461 2929 4481 2943 C 4510 2963 4514 2970 4512 3001 C 4509 3032 4514 3041 4552 3072 L 4595 3108 L 4635 3080 C 4658 3064 4675 3043 4676 3032 C 4677 3009 4655 2995 4644 3011 C 4641 3016 4630 3018 4619 3015 C 4608 3011 4600 3013 4600 3019 C 4600 3025 4593 3030 4584 3030 C 4576 3030 4572 3026 4575 3020 C 4578 3015 4578 3004 4574 2998 C 4569 2991 4566 2974 4566 2960 C 4566 2940 4571 2935 4591 2937 C 4604 2938 4610 2937 4604 2934 C 4599 2932 4595 2916 4596 2899 C 4598 2876 4593 2866 4574 2858 C 4546 2845 4532 2853 4549 2874 C 4556 2882 4557 2891 4552 2894 C 4546 2897 4539 2893 4536 2884 C 4533 2876 4525 2872 4520 2875 C 4514 2879 4498 2874 4484 2865 C 4466 2853 4460 2842 4462 2823 C 4464 2808 4471 2794 4479 2792 C 4488 2789 4490 2792 4486 2801 C 4482 2809 4486 2806 4494 2796 C 4503 2785 4510 2760 4510 2741 L 4510 2706 L 4530 2728 C 4541 2740 4550 2753 4550 2757 C 4550 2762 4558 2773 4568 2781 C 4588 2800 4624 2843 4625 2850 C 4628 2868 4643 2900 4649 2900 C 4653 2900 4662 2916 4669 2935 C 4676 2954 4685 2970 4690 2970 C 4705 2970 4712 3041 4698 3057 C 4691 3066 4685 3083 4685 3094 C 4685 3106 4680 3114 4673 3113 C 4665 3111 4663 3117 4667 3128 C 4678 3158 4681 3161 4694 3151 C 4702 3144 4706 3146 4707 3160 C 4708 3174 4703 3177 4684 3175 C 4671 3174 4660 3176 4660 3180 C 4660 3183 4645 3184 4628 3182 C 4598 3177 4596 3179 4609 3194 C 4616 3203 4627 3210 4633 3210 C 4639 3210 4652 3218 4662 3227 C 4676 3240 4683 3241 4692 3232 C 4707 3217 4734 3216 4725 3230 C 4722 3236 4724 3240 4730 3240 C 4736 3240 4738 3245 4735 3250 C 4732 3256 4739 3260 4752 3261 L 4775 3262 L 4752 3268 C 4731 3275 4730 3276 4745 3295 C 4754 3308 4758 3309 4755 3299 C 4751 3289 4755 3283 4765 3283 C 4773 3283 4780 3287 4780 3291 C 4780 3295 4783 3305 4786 3314 C 4790 3326 4786 3330 4769 3331 C 4748 3332 4748 3333 4765 3337 C 4776 3340 4791 3347 4799 3353 C 4809 3362 4818 3358 4836 3337 C 4849 3321 4860 3314 4860 3321 C 4860 3328 4863 3331 4866 3327 C 4875 3318 4898 3343 4893 3357 C 4889 3366 4884 3366 4873 3355 C 4865 3346 4854 3343 4848 3346 C 4841 3350 4842 3355 4850 3360 C 4857 3364 4860 3372 4858 3376 C 4855 3381 4862 3394 4873 3405 C 4884 3416 4890 3419 4886 3413 C 4882 3406 4884 3400 4890 3400 C 4897 3400 4899 3408 4895 3420 C 4890 3436 4892 3439 4907 3433 C 4918 3429 4914 3436 4898 3449 C 4883 3461 4871 3475 4873 3480 C 4874 3485 4866 3496 4855 3504 C 4837 3518 4840 3518 4883 3504 C 4923 3490 4930 3484 4930 3462 C 4930 3447 4934 3428 4940 3420 C 4946 3410 4948 3420 4947 3452 C 4946 3478 4943 3497 4939 3494 C 4935 3492 4930 3497 4926 3505 C 4923 3513 4914 3520 4905 3520 C 4897 3520 4890 3525 4890 3530 C 4890 3536 4882 3540 4873 3541 C 4862 3541 4860 3544 4868 3547 C 4885 3554 4883 3577 4864 3584 C 4854 3588 4851 3597 4855 3610 C 4860 3625 4857 3630 4843 3630 C 4833 3630 4816 3637 4806 3645 C 4791 3657 4789 3662 4799 3674 C 4809 3686 4808 3688 4791 3683 C 4774 3679 4770 3682 4770 3703 C 4770 3717 4765 3732 4760 3735 C 4754 3739 4757 3751 4769 3767 C 4785 3786 4787 3794 4777 3805 C 4770 3812 4762 3816 4758 3814 C 4751 3809 4724 3850 4728 3861 C 4729 3865 4721 3866 4711 3863 C 4688 3857 4676 3894 4696 3911 C 4715 3926 4714 3940 4694 3940 C 4686 3940 4681 3936 4684 3931 C 4688 3926 4666 3923 4635 3923 C 4605 3924 4580 3928 4580 3931 C 4580 3942 4553 3949 4544 3940 z M 4546 3904 C 4537 3895 4526 3890 4523 3894 C 4519 3897 4525 3907 4536 3914 C 4561 3932 4567 3926 4546 3904 z M 4525 3880 C 4528 3875 4540 3870 4551 3870 C 4561 3870 4570 3866 4570 3861 C 4570 3856 4560 3854 4548 3858 C 4527 3863 4526 3862 4539 3847 C 4546 3838 4562 3830 4574 3829 C 4585 3829 4589 3826 4583 3823 C 4576 3821 4570 3812 4570 3804 C 4570 3797 4564 3793 4556 3796 C 4548 3799 4536 3792 4528 3781 C 4520 3769 4510 3763 4507 3767 C 4503 3770 4500 3770 4500 3766 C 4500 3763 4511 3755 4525 3750 C 4569 3733 4557 3705 4493 3679 C 4462 3667 4426 3655 4413 3654 C 4393 3652 4390 3656 4390 3686 C 4390 3717 4396 3724 4435 3748 C 4477 3773 4480 3777 4476 3811 C 4469 3861 4506 3911 4525 3880 z M 4740 3736 C 4740 3717 4709 3692 4690 3697 C 4680 3700 4670 3710 4667 3721 C 4662 3741 4640 3748 4640 3729 C 4640 3724 4646 3722 4653 3726 C 4662 3732 4661 3729 4652 3718 C 4636 3698 4610 3705 4609 3729 C 4609 3741 4607 3741 4600 3725 C 4592 3706 4591 3706 4591 3727 C 4590 3740 4601 3755 4622 3768 L 4653 3788 L 4697 3767 C 4720 3755 4740 3742 4740 3736 z M 4334 3740 C 4375 3723 4380 3718 4376 3694 C 4369 3658 4367 3657 4342 3680 C 4330 3692 4320 3696 4320 3690 C 4320 3685 4313 3680 4305 3680 C 4296 3680 4290 3670 4289 3658 C 4288 3641 4286 3640 4283 3652 C 4281 3661 4284 3679 4290 3690 C 4305 3718 4302 3720 4251 3729 C 4247 3730 4281 3759 4287 3760 C 4288 3760 4309 3751 4334 3740 z M 4240 3716 C 4240 3714 4233 3709 4224 3706 C 4216 3703 4212 3704 4215 3710 C 4221 3720 4240 3724 4240 3716 z M 4230 3670 C 4238 3656 4238 3644 4230 3630 C 4221 3612 4224 3607 4255 3589 C 4296 3565 4301 3546 4265 3552 C 4251 3555 4237 3553 4234 3549 C 4231 3544 4220 3545 4209 3551 C 4181 3565 4172 3554 4196 3535 C 4214 3521 4212 3521 4181 3527 C 4161 3530 4149 3529 4152 3524 C 4155 3519 4152 3509 4144 3502 C 4132 3491 4130 3494 4130 3522 C 4130 3545 4139 3564 4162 3587 C 4180 3605 4200 3620 4206 3620 C 4215 3620 4217 3631 4213 3655 C 4207 3694 4214 3700 4230 3670 z M 4790 3635 C 4831 3609 4842 3590 4815 3590 C 4807 3590 4800 3595 4800 3602 C 4800 3608 4790 3605 4778 3594 C 4759 3577 4757 3577 4763 3593 C 4770 3612 4755 3617 4744 3599 C 4740 3591 4735 3592 4729 3601 C 4721 3613 4718 3613 4711 3600 C 4705 3592 4698 3589 4694 3593 C 4688 3599 4736 3660 4747 3660 C 4749 3660 4768 3649 4790 3635 z M 4320 3640 C 4320 3635 4316 3630 4310 3630 C 4305 3630 4300 3635 4300 3640 C 4300 3646 4305 3650 4310 3650 C 4316 3650 4320 3646 4320 3640 z M 4537 3614 C 4534 3611 4545 3596 4561 3582 C 4582 3565 4590 3551 4586 3538 C 4580 3512 4589 3489 4604 3496 C 4610 3498 4605 3493 4593 3484 C 4576 3472 4570 3458 4572 3431 L 4573 3395 L 4577 3428 C 4580 3453 4590 3466 4621 3486 C 4661 3511 4662 3511 4706 3494 C 4741 3481 4750 3472 4750 3454 C 4750 3441 4745 3430 4739 3430 C 4734 3430 4732 3435 4735 3440 C 4738 3446 4734 3450 4726 3450 C 4717 3450 4710 3455 4710 3460 C 4710 3466 4694 3470 4675 3470 C 4656 3470 4640 3465 4640 3459 C 4640 3454 4636 3452 4630 3455 C 4625 3458 4620 3455 4620 3447 C 4620 3439 4627 3429 4636 3426 C 4645 3422 4650 3417 4647 3414 C 4644 3411 4646 3397 4651 3383 C 4660 3359 4659 3358 4633 3363 L 4605 3368 L 4628 3350 C 4654 3329 4655 3313 4636 3274 C 4628 3259 4623 3243 4626 3239 C 4628 3234 4619 3223 4605 3214 C 4584 3200 4580 3190 4580 3149 C 4580 3112 4576 3100 4565 3100 C 4557 3100 4550 3095 4550 3088 C 4550 3079 4547 3079 4538 3088 C 4521 3105 4480 3103 4480 3085 C 4480 3067 4461 3066 4438 3084 C 4424 3094 4421 3109 4424 3148 C 4425 3177 4425 3198 4422 3196 C 4420 3194 4410 3199 4400 3208 C 4386 3220 4384 3227 4391 3237 C 4400 3246 4398 3252 4384 3257 C 4352 3269 4330 3303 4343 3319 C 4353 3331 4351 3331 4331 3321 C 4300 3304 4291 3318 4296 3373 C 4300 3416 4316 3443 4331 3434 C 4336 3431 4340 3436 4340 3444 C 4340 3453 4346 3460 4354 3460 C 4370 3460 4394 3434 4387 3423 C 4385 3419 4386 3406 4391 3395 C 4397 3379 4399 3383 4399 3412 C 4400 3440 4395 3452 4380 3460 C 4369 3466 4360 3475 4360 3481 C 4360 3487 4365 3488 4371 3485 C 4377 3481 4387 3485 4393 3494 C 4400 3503 4420 3512 4438 3514 C 4472 3519 4478 3512 4458 3492 C 4451 3485 4449 3480 4454 3480 C 4473 3480 4490 3512 4490 3549 C 4490 3579 4496 3593 4512 3604 C 4534 3620 4549 3625 4537 3614 z M 4411 3597 C 4404 3590 4397 3589 4390 3596 C 4384 3602 4388 3606 4402 3607 C 4418 3609 4420 3606 4411 3597 z M 3890 3564 C 3890 3562 3872 3551 3850 3540 C 3810 3520 3805 3501 3838 3499 C 3853 3499 3852 3498 3836 3491 C 3819 3484 3819 3483 3834 3468 C 3846 3456 3847 3450 3837 3447 C 3831 3444 3835 3441 3848 3441 C 3860 3440 3870 3436 3870 3430 C 3870 3416 3855 3417 3814 3435 C 3794 3443 3775 3448 3771 3446 C 3768 3444 3767 3463 3768 3488 C 3771 3528 3778 3540 3808 3566 C 3842 3595 3846 3597 3867 3583 C 3880 3574 3890 3566 3890 3564 z M 4830 3554 C 4830 3540 4826 3531 4821 3534 C 4816 3537 4814 3549 4817 3560 C 4824 3588 4830 3585 4830 3554 z M 4327 3550 C 4324 3539 4327 3530 4333 3530 C 4339 3530 4340 3527 4337 3523 C 4333 3520 4335 3511 4342 3503 C 4356 3486 4348 3478 4326 3486 C 4307 3493 4303 3570 4321 3570 C 4327 3570 4330 3561 4327 3550 z M 4055 3520 C 4058 3515 4057 3510 4051 3510 C 4046 3510 4038 3515 4035 3520 C 4032 3526 4033 3530 4039 3530 C 4044 3530 4052 3526 4055 3520 z M 4191 3349 C 4166 3315 4171 3311 4199 3341 C 4211 3354 4220 3358 4225 3351 C 4228 3345 4236 3340 4241 3340 C 4247 3340 4248 3344 4245 3350 C 4242 3356 4246 3357 4255 3353 C 4267 3349 4268 3345 4260 3340 C 4252 3335 4257 3327 4274 3314 C 4290 3301 4300 3283 4302 3260 C 4305 3229 4312 3222 4353 3202 C 4398 3180 4400 3178 4400 3136 C 4400 3098 4395 3090 4362 3062 L 4323 3032 L 4295 3050 C 4279 3060 4262 3077 4257 3087 C 4247 3104 4248 3104 4266 3088 C 4285 3071 4287 3072 4300 3090 C 4310 3104 4321 3108 4338 3103 C 4361 3098 4362 3099 4356 3126 C 4352 3142 4343 3158 4337 3162 C 4330 3166 4330 3170 4335 3170 C 4341 3170 4337 3175 4327 3181 C 4318 3186 4305 3188 4299 3185 C 4293 3181 4290 3184 4291 3191 C 4297 3217 4270 3250 4245 3250 C 4231 3250 4220 3247 4220 3242 C 4220 3238 4210 3229 4199 3221 C 4183 3211 4176 3211 4170 3220 C 4165 3228 4161 3227 4157 3216 C 4152 3204 4160 3195 4185 3183 C 4217 3168 4220 3162 4220 3124 C 4220 3101 4214 3077 4207 3071 C 4190 3057 4177 3069 4190 3085 C 4216 3116 4164 3146 4093 3141 C 4049 3138 4052 3154 4100 3181 C 4137 3202 4140 3207 4140 3245 C 4140 3267 4146 3292 4153 3300 C 4163 3312 4162 3312 4148 3302 C 4138 3294 4130 3293 4126 3299 C 4122 3304 4124 3311 4130 3315 C 4146 3325 4142 3336 4120 3337 C 4109 3338 4100 3335 4100 3329 C 4100 3314 4081 3319 4061 3339 C 4042 3358 4036 3411 4053 3410 C 4057 3410 4067 3410 4075 3410 C 4094 3410 4094 3396 4074 3376 C 4066 3367 4062 3360 4067 3359 C 4071 3359 4086 3357 4099 3356 C 4112 3354 4130 3361 4139 3372 C 4147 3382 4160 3390 4167 3390 C 4174 3390 4185 3400 4192 3413 C 4205 3435 4205 3435 4208 3406 C 4210 3388 4204 3366 4191 3349 z M 3713 3404 C 3724 3393 3710 3380 3695 3386 C 3687 3390 3683 3396 3686 3401 C 3692 3412 3704 3413 3713 3404 z M 4240 3384 C 4240 3376 4236 3370 4230 3370 C 4225 3370 4220 3379 4220 3391 C 4220 3402 4225 3408 4230 3405 C 4236 3402 4240 3392 4240 3384 z M 4785 3360 C 4782 3355 4774 3350 4769 3350 C 4763 3350 4762 3355 4765 3360 C 4768 3366 4776 3370 4781 3370 C 4787 3370 4788 3366 4785 3360 z M 4435 3074 C 4449 3065 4467 3060 4475 3064 C 4484 3067 4488 3066 4485 3061 C 4482 3056 4485 3048 4491 3044 C 4498 3040 4500 3041 4497 3046 C 4494 3052 4495 3062 4501 3070 C 4508 3082 4510 3081 4509 3065 C 4509 3043 4492 2999 4491 3016 C 4489 3049 4410 3027 4410 2994 C 4410 2986 4401 2980 4389 2980 C 4373 2980 4370 2976 4375 2960 C 4378 2949 4378 2940 4373 2940 C 4335 2941 4318 3030 4356 3030 C 4364 3030 4370 3037 4370 3045 C 4370 3053 4377 3060 4385 3060 C 4393 3060 4400 3067 4400 3075 C 4400 3094 4405 3094 4435 3074 z M 4320 2985 C 4320 2956 4315 2947 4293 2937 C 4277 2931 4262 2922 4259 2917 C 4250 2905 4169 2931 4163 2948 C 4160 2955 4162 2966 4168 2972 C 4176 2980 4181 2979 4186 2967 C 4189 2958 4196 2953 4201 2956 C 4206 2959 4210 2954 4210 2946 C 4210 2937 4214 2930 4219 2930 C 4225 2930 4228 2945 4227 2963 C 4225 2989 4228 2994 4243 2992 C 4252 2990 4267 2996 4276 3005 C 4303 3031 4320 3023 4320 2985 z M 4497 2978 C 4494 2970 4491 2973 4491 2984 C 4490 2995 4493 3001 4496 2997 C 4499 2994 4500 2985 4497 2978 z M 4363 2934 C 4404 2913 4402 2916 4394 2897 C 4389 2883 4384 2882 4367 2892 C 4355 2898 4348 2899 4352 2895 C 4356 2891 4350 2879 4339 2867 C 4329 2856 4320 2839 4320 2831 C 4320 2798 4305 2788 4277 2801 C 4254 2811 4250 2819 4250 2856 C 4250 2895 4254 2902 4288 2924 C 4333 2954 4325 2953 4363 2934 z M 3510 2844 C 3510 2842 3501 2844 3490 2850 C 3479 2856 3470 2863 3470 2866 C 3470 2868 3479 2866 3490 2860 C 3501 2854 3510 2847 3510 2844 z M 3517 2778 C 3514 2770 3511 2773 3511 2784 C 3510 2795 3513 2801 3516 2797 C 3519 2794 3520 2785 3517 2778 z M 2265 2770 C 2268 2764 2264 2763 2256 2766 C 2238 2773 2235 2780 2249 2780 C 2255 2780 2262 2776 2265 2770 z M 3544 2754 C 3567 2745 3564 2731 3540 2737 C 3529 2740 3520 2746 3520 2751 C 3520 2762 3523 2762 3544 2754 z M 2367 2608 C 2364 2600 2361 2603 2361 2614 C 2360 2625 2363 2631 2366 2627 C 2369 2624 2370 2615 2367 2608 z M 4279 2567 C 4280 2557 4276 2551 4272 2554 C 4267 2557 4263 2576 4263 2597 C 4262 2630 4263 2632 4270 2610 C 4274 2596 4278 2577 4279 2567 z M 4210 2501 C 4210 2496 4203 2489 4194 2486 C 4180 2481 4179 2482 4190 2495 C 4204 2512 4210 2514 4210 2501 z M 2520 2428 C 2520 2423 2511 2424 2500 2430 C 2489 2436 2480 2442 2480 2444 C 2480 2446 2489 2446 2500 2443 C 2511 2440 2520 2434 2520 2428 z M 4107 2318 C 4104 2310 4101 2313 4101 2324 C 4100 2335 4103 2341 4106 2337 C 4109 2334 4110 2325 4107 2318 z M 4120 2280 C 4120 2275 4118 2270 4116 2270 C 4113 2270 4108 2275 4105 2280 C 4102 2286 4104 2290 4109 2290 C 4115 2290 4120 2286 4120 2280 z M 2837 2238 C 2834 2230 2831 2233 2831 2244 C 2830 2255 2833 2261 2836 2257 C 2839 2254 2840 2245 2837 2238 z M 4027 2198 C 4024 2190 4021 2193 4021 2204 C 4020 2215 4023 2221 4026 2217 C 4029 2214 4030 2205 4027 2198 z M 2875 2200 C 2878 2195 2876 2190 2871 2190 C 2865 2190 2860 2195 2860 2200 C 2860 2206 2862 2210 2864 2210 C 2867 2210 2872 2206 2875 2200 z M 3947 2068 C 3944 2060 3941 2063 3941 2074 C 3940 2085 3943 2091 3946 2087 C 3949 2084 3950 2075 3947 2068 z" stroke-linecap="round" />
</g>
		<g transform="matrix(0.13 0 0 -0.13 231.98 -228.14)"  >
<path style="stroke: none; stroke-width: 1; stroke-dasharray: none; stroke-linecap: butt; stroke-dashoffset: 0; stroke-linejoin: miter; stroke-miterlimit: 4; fill: rgb(0,0,0); fill-rule: nonzero; opacity: 1;" vector-effect="non-scaling-stroke"  transform=" translate(-4317.2, -3724.87)" d="M 4307 3725 C 4310 3717 4316 3713 4321 3716 C 4333 3723 4332 3727 4316 3733 C 4306 3737 4303 3734 4307 3725 z" stroke-linecap="round" />
</g>
		<g transform="matrix(0.13 0 0 -0.13 236.34 -180.09)"  >
<path style="stroke: none; stroke-width: 1; stroke-dasharray: none; stroke-linecap: butt; stroke-dashoffset: 0; stroke-linejoin: miter; stroke-miterlimit: 4; fill: rgb(0,0,0); fill-rule: nonzero; opacity: 1;" vector-effect="non-scaling-stroke"  transform=" translate(-4349.81, -3364.4)" d="M 4347 3373 C 4343 3370 4340 3362 4340 3356 C 4340 3350 4345 3351 4352 3358 C 4358 3364 4361 3372 4359 3375 C 4356 3378 4350 3377 4347 3373 z" stroke-linecap="round" />
</g>
		<g transform="matrix(0.13 0 0 -0.13 220.61 -168.83)"  >
<path style="stroke: none; stroke-width: 1; stroke-dasharray: none; stroke-linecap: butt; stroke-dashoffset: 0; stroke-linejoin: miter; stroke-miterlimit: 4; fill: rgb(0,0,0); fill-rule: nonzero; opacity: 1;" vector-effect="non-scaling-stroke"  transform=" translate(-4231.8, -3280)" d="M 4225 3280 C 4228 3275 4233 3270 4236 3270 C 4238 3270 4240 3275 4240 3280 C 4240 3286 4235 3290 4229 3290 C 4224 3290 4222 3286 4225 3280 z" stroke-linecap="round" />
</g>
		<g transform="matrix(0.13 0 0 -0.13 243.68 -136.63)"  >
<path style="stroke: none; stroke-width: 1; stroke-dasharray: none; stroke-linecap: butt; stroke-dashoffset: 0; stroke-linejoin: miter; stroke-miterlimit: 4; fill: rgb(0,0,0); fill-rule: nonzero; opacity: 1;" vector-effect="non-scaling-stroke"  transform=" translate(-4405, -3038.5)" d="M 4390 3038 C 4390 3034 4397 3030 4405 3030 C 4413 3030 4420 3034 4420 3038 C 4420 3043 4413 3047 4405 3047 C 4397 3047 4390 3043 4390 3038 z" stroke-linecap="round" />
</g>
		<g transform="matrix(0.13 0 0 -0.13 229.28 -115.49)"  >
<path style="stroke: none; stroke-width: 1; stroke-dasharray: none; stroke-linecap: butt; stroke-dashoffset: 0; stroke-linejoin: miter; stroke-miterlimit: 4; fill: rgb(0,0,0); fill-rule: nonzero; opacity: 1;" vector-effect="non-scaling-stroke"  transform=" translate(-4297, -2880)" d="M 4285 2880 C 4288 2875 4295 2870 4301 2870 C 4306 2870 4310 2875 4310 2880 C 4310 2886 4303 2890 4294 2890 C 4286 2890 4282 2886 4285 2880 z" stroke-linecap="round" />
</g>
		<g transform="matrix(0.13 0 0 -0.13 203.52 -227.01)"  >
<path style="stroke: none; stroke-width: 1; stroke-dasharray: none; stroke-linecap: butt; stroke-dashoffset: 0; stroke-linejoin: miter; stroke-miterlimit: 4; fill: rgb(0,0,0); fill-rule: nonzero; opacity: 1;" vector-effect="non-scaling-stroke"  transform=" translate(-4103.73, -3716.33)" d="M 4090 3721 C 4090 3716 4097 3709 4106 3706 C 4120 3701 4121 3702 4110 3715 C 4096 3732 4090 3734 4090 3721 z" stroke-linecap="round" />
</g>
		<g transform="matrix(0.13 0 0 -0.13 -181.72 -157.88)"  >
<path style="stroke: none; stroke-width: 1; stroke-dasharray: none; stroke-linecap: butt; stroke-dashoffset: 0; stroke-linejoin: miter; stroke-miterlimit: 4; fill: rgb(0,0,0); fill-rule: nonzero; opacity: 1;" vector-effect="non-scaling-stroke"  transform=" translate(-1225, -3185.52)" d="M 1415 3668 C 1424 3631 1406 3614 1375 3628 C 1344 3642 1337 3643 1344 3631 C 1347 3626 1343 3620 1335 3616 C 1327 3613 1320 3615 1320 3620 C 1320 3626 1313 3630 1304 3630 C 1296 3630 1291 3626 1294 3621 C 1298 3616 1294 3609 1288 3607 C 1278 3603 1279 3599 1290 3591 C 1298 3586 1301 3578 1298 3574 C 1294 3571 1280 3579 1267 3592 C 1247 3612 1238 3615 1224 3607 C 1214 3601 1196 3596 1184 3594 C 1172 3593 1147 3588 1128 3584 C 1110 3580 1089 3577 1081 3579 C 1073 3580 1046 3576 1021 3570 C 946 3551 946 3550 957 3539 C 973 3523 949 3480 920 3473 C 906 3470 893 3464 890 3461 C 887 3457 872 3449 856 3442 C 829 3430 825 3431 808 3452 C 794 3470 790 3471 790 3459 C 790 3450 797 3440 805 3436 C 813 3433 820 3423 820 3414 C 820 3405 829 3385 840 3370 C 851 3354 863 3328 866 3311 C 870 3294 876 3280 880 3280 C 884 3280 891 3270 895 3258 C 899 3245 903 3232 905 3228 C 906 3223 908 3217 909 3213 C 910 3208 914 3212 920 3220 C 933 3240 941 3229 947 3180 C 951 3151 957 3140 966 3144 C 981 3150 989 3140 995 3109 C 998 3097 1007 3079 1016 3069 C 1029 3055 1036 3053 1051 3063 C 1064 3071 1066 3078 1059 3087 C 1053 3094 1050 3105 1053 3112 C 1057 3121 1059 3121 1059 3110 C 1060 3102 1069 3089 1079 3083 C 1096 3072 1098 3075 1102 3100 C 1105 3117 1104 3128 1102 3125 C 1090 3114 1060 3143 1062 3163 C 1064 3175 1061 3186 1055 3188 C 1050 3189 1044 3186 1044 3180 C 1041 3160 1040 3159 1022 3169 C 999 3181 992 3250 1014 3250 C 1023 3250 1035 3240 1041 3228 L 1053 3206 L 1070 3228 C 1085 3246 1089 3247 1094 3234 C 1097 3225 1105 3222 1112 3226 C 1119 3231 1133 3235 1143 3235 C 1158 3236 1160 3232 1155 3213 C 1152 3198 1153 3191 1159 3194 C 1164 3197 1171 3194 1173 3188 C 1176 3181 1179 3193 1179 3216 C 1180 3249 1185 3259 1205 3270 C 1222 3279 1226 3286 1219 3291 C 1213 3295 1223 3297 1241 3295 C 1290 3291 1290 3291 1290 3279 C 1290 3274 1286 3271 1281 3274 C 1276 3277 1270 3274 1267 3266 C 1263 3257 1252 3254 1234 3258 C 1214 3262 1209 3259 1212 3249 C 1215 3241 1225 3236 1235 3238 C 1245 3240 1249 3237 1245 3231 C 1242 3225 1242 3220 1247 3220 C 1251 3220 1270 3206 1287 3190 C 1314 3165 1323 3161 1339 3170 C 1365 3184 1371 3183 1400 3160 C 1415 3148 1418 3142 1408 3146 C 1398 3149 1390 3147 1390 3141 C 1390 3135 1395 3130 1400 3130 C 1406 3130 1410 3125 1410 3119 C 1410 3114 1405 3112 1399 3116 C 1392 3120 1392 3115 1400 3100 C 1408 3085 1408 3080 1401 3084 C 1394 3089 1390 3079 1390 3055 C 1390 3027 1385 3017 1368 3010 C 1355 3005 1349 3001 1354 3001 C 1359 3000 1355 2991 1344 2979 C 1333 2967 1330 2956 1336 2952 C 1341 2948 1345 2939 1344 2933 C 1343 2926 1342 2916 1341 2911 C 1341 2906 1326 2893 1309 2882 C 1281 2865 1277 2857 1276 2812 C 1275 2760 1285 2754 1308 2791 C 1316 2803 1317 2809 1312 2806 C 1307 2803 1300 2811 1298 2825 C 1294 2845 1301 2857 1336 2885 L 1379 2920 L 1394 2898 C 1405 2883 1406 2874 1399 2869 C 1392 2865 1391 2857 1394 2851 C 1398 2845 1394 2837 1386 2834 C 1349 2820 1380 2785 1428 2786 C 1462 2787 1460 2774 1425 2768 C 1414 2767 1402 2761 1398 2755 C 1393 2749 1390 2750 1390 2758 C 1390 2764 1386 2770 1382 2770 C 1377 2770 1375 2751 1377 2728 C 1382 2679 1390 2664 1390 2704 C 1390 2728 1392 2729 1410 2720 C 1425 2712 1430 2712 1430 2723 C 1430 2731 1440 2736 1453 2736 C 1472 2735 1475 2740 1475 2773 C 1475 2799 1481 2815 1493 2821 C 1504 2828 1510 2828 1510 2821 C 1510 2804 1550 2813 1556 2832 C 1559 2842 1566 2850 1571 2850 C 1576 2850 1580 2859 1580 2870 C 1580 2881 1587 2890 1595 2890 C 1603 2890 1610 2895 1610 2901 C 1610 2906 1614 2909 1620 2905 C 1625 2902 1627 2914 1624 2937 C 1615 2997 1614 3040 1621 3040 C 1633 3040 1641 3090 1641 3157 C 1641 3191 1645 3222 1650 3225 C 1659 3230 1652 3270 1641 3271 C 1638 3271 1625 3273 1613 3276 C 1600 3278 1590 3275 1590 3270 C 1590 3264 1581 3260 1570 3260 C 1550 3260 1550 3259 1565 3229 C 1581 3200 1580 3198 1563 3202 C 1550 3204 1544 3216 1542 3241 C 1539 3274 1543 3280 1575 3300 C 1599 3315 1619 3320 1636 3316 L 1660 3309 L 1645 3346 C 1637 3366 1630 3391 1630 3401 C 1630 3412 1627 3420 1622 3420 C 1618 3420 1610 3429 1605 3439 C 1599 3450 1587 3474 1576 3494 C 1566 3514 1551 3530 1544 3530 C 1527 3530 1526 3542 1541 3557 C 1550 3566 1543 3573 1514 3587 C 1493 3597 1469 3611 1462 3618 C 1455 3624 1444 3630 1439 3630 C 1434 3630 1430 3644 1430 3660 C 1430 3677 1425 3690 1420 3690 C 1414 3690 1412 3680 1415 3668 z M 1394 3554 C 1402 3551 1407 3543 1404 3537 C 1402 3530 1416 3515 1435 3502 C 1459 3487 1470 3472 1470 3456 C 1470 3433 1438 3395 1428 3405 C 1425 3408 1424 3390 1425 3365 C 1428 3321 1426 3318 1390 3295 L 1351 3270 L 1311 3292 C 1271 3313 1266 3322 1266 3382 C 1266 3391 1264 3399 1261 3398 C 1238 3396 1229 3402 1234 3416 C 1237 3425 1236 3428 1229 3425 C 1224 3421 1208 3426 1194 3435 C 1175 3447 1170 3458 1172 3478 C 1175 3501 1179 3505 1202 3502 C 1216 3500 1231 3504 1235 3509 C 1238 3515 1249 3520 1258 3520 C 1268 3520 1271 3517 1264 3512 C 1249 3502 1239 3470 1250 3470 C 1277 3470 1275 3467 1279 3509 C 1280 3520 1283 3520 1296 3509 C 1320 3489 1340 3490 1340 3510 C 1340 3520 1347 3536 1356 3544 C 1374 3562 1373 3562 1394 3554 z M 1052 3536 C 1065 3526 1067 3521 1058 3512 C 1051 3505 1040 3500 1033 3500 C 1010 3500 1019 3481 1050 3465 C 1067 3456 1080 3444 1080 3437 C 1080 3429 1084 3430 1090 3440 C 1098 3452 1100 3449 1100 3429 C 1100 3389 1075 3386 1027 3421 C 990 3448 986 3455 988 3488 C 990 3508 999 3531 1008 3538 C 1027 3553 1031 3553 1052 3536 z M 1466 3509 C 1469 3503 1461 3506 1446 3515 C 1432 3525 1420 3534 1420 3537 C 1420 3544 1459 3520 1466 3509 z M 1535 3450 C 1538 3444 1535 3437 1527 3434 C 1510 3428 1517 3381 1536 3373 C 1543 3370 1549 3353 1548 3329 C 1548 3285 1531 3279 1480 3305 C 1459 3316 1449 3330 1444 3357 C 1438 3391 1440 3396 1476 3427 C 1518 3462 1526 3465 1535 3450 z M 1200 3410 C 1211 3399 1227 3390 1235 3390 C 1243 3390 1250 3385 1250 3379 C 1250 3373 1243 3370 1235 3374 C 1227 3377 1220 3375 1220 3370 C 1220 3364 1227 3360 1235 3360 C 1243 3360 1250 3351 1250 3340 C 1250 3329 1246 3320 1241 3320 C 1229 3320 1203 3346 1189 3372 C 1180 3389 1176 3390 1169 3379 C 1163 3369 1160 3368 1160 3378 C 1160 3384 1154 3390 1146 3390 C 1137 3390 1134 3383 1137 3370 C 1140 3358 1137 3350 1131 3350 C 1124 3350 1122 3355 1126 3362 C 1130 3369 1129 3370 1122 3366 C 1115 3362 1110 3351 1110 3342 C 1110 3333 1105 3318 1100 3310 C 1093 3299 1091 3308 1092 3343 C 1093 3384 1097 3393 1124 3410 C 1163 3435 1175 3435 1200 3410 z M 1550 3399 C 1550 3393 1546 3392 1540 3395 C 1535 3398 1530 3406 1530 3411 C 1530 3417 1535 3418 1540 3415 C 1546 3412 1550 3404 1550 3399 z M 933 3364 C 930 3337 939 3313 948 3326 C 952 3332 965 3340 978 3344 C 996 3350 1000 3348 1000 3331 C 1000 3319 1005 3310 1011 3310 C 1016 3310 1018 3305 1014 3298 C 1010 3291 1011 3290 1018 3294 C 1025 3298 1030 3310 1030 3321 C 1030 3333 1034 3338 1041 3334 C 1047 3331 1056 3334 1061 3341 C 1068 3352 1070 3350 1070 3334 C 1070 3295 993 3249 968 3273 C 961 3280 949 3285 943 3286 C 936 3287 926 3288 921 3289 C 910 3290 899 3356 907 3376 C 915 3397 935 3387 933 3364 z M 1057 3374 C 1054 3371 1045 3370 1038 3373 C 1030 3376 1033 3379 1044 3379 C 1055 3380 1061 3377 1057 3374 z M 1135 3330 C 1138 3325 1136 3320 1131 3320 C 1125 3320 1120 3325 1120 3330 C 1120 3336 1122 3340 1124 3340 C 1127 3340 1132 3336 1135 3330 z M 1160 3301 C 1160 3295 1156 3289 1152 3286 C 1147 3283 1143 3287 1143 3295 C 1143 3303 1147 3310 1152 3310 C 1156 3310 1160 3306 1160 3301 z M 1481 3284 C 1497 3265 1501 3256 1492 3253 C 1486 3250 1482 3244 1486 3239 C 1489 3234 1484 3230 1475 3230 C 1466 3230 1462 3225 1465 3220 C 1469 3214 1475 3212 1480 3215 C 1485 3218 1491 3216 1494 3211 C 1498 3206 1496 3199 1490 3195 C 1484 3191 1482 3185 1485 3181 C 1489 3173 1437 3120 1424 3120 C 1421 3120 1422 3129 1425 3140 C 1428 3151 1427 3160 1422 3160 C 1400 3160 1360 3210 1360 3238 C 1360 3261 1366 3270 1390 3280 C 1407 3287 1420 3296 1420 3301 C 1420 3320 1458 3309 1481 3284 z M 1125 3260 C 1122 3255 1113 3253 1105 3257 C 1084 3264 1086 3270 1111 3270 C 1122 3270 1129 3266 1125 3260 z M 1338 3254 C 1349 3234 1342 3198 1328 3202 C 1323 3204 1319 3210 1319 3215 C 1319 3221 1312 3228 1305 3233 C 1288 3242 1296 3270 1316 3270 C 1323 3270 1333 3263 1338 3254 z M 1550 3192 C 1550 3187 1561 3178 1575 3172 C 1602 3159 1609 3140 1585 3140 C 1571 3140 1544 3102 1548 3088 C 1553 3070 1529 3030 1513 3030 C 1500 3030 1499 3027 1508 3018 C 1524 3002 1523 2989 1506 2996 C 1485 3004 1459 2961 1471 2938 C 1478 2925 1477 2920 1468 2920 C 1457 2920 1457 2918 1468 2912 C 1479 2905 1475 2870 1464 2870 C 1461 2870 1442 2881 1420 2895 C 1383 2918 1380 2924 1380 2963 C 1380 3004 1382 3007 1424 3027 C 1467 3049 1468 3050 1463 3090 C 1458 3128 1460 3133 1496 3165 C 1536 3200 1550 3207 1550 3192 z" stroke-linecap="round" />
</g>
		<g transform="matrix(0.13 0 0 -0.13 -178.9 -191.42)"  >
<path style="stroke: none; stroke-width: 1; stroke-dasharray: none; stroke-linecap: butt; stroke-dashoffset: 0; stroke-linejoin: miter; stroke-miterlimit: 4; fill: rgb(0,0,0); fill-rule: nonzero; opacity: 1;" vector-effect="non-scaling-stroke"  transform=" translate(-1235.65, -3449.5)" d="M 1230 3450 C 1221 3444 1220 3440 1227 3440 C 1233 3440 1242 3445 1245 3450 C 1253 3462 1249 3462 1230 3450 z" stroke-linecap="round" />
</g>
		<g transform="matrix(0.13 0 0 -0.13 -156.97 -162.16)"  >
<path style="stroke: none; stroke-width: 1; stroke-dasharray: none; stroke-linecap: butt; stroke-dashoffset: 0; stroke-linejoin: miter; stroke-miterlimit: 4; fill: rgb(0,0,0); fill-rule: nonzero; opacity: 1;" vector-effect="non-scaling-stroke"  transform=" translate(-1400, -3230)" d="M 1390 3230 C 1390 3225 1395 3220 1400 3220 C 1406 3220 1410 3225 1410 3230 C 1410 3236 1406 3240 1400 3240 C 1395 3240 1390 3236 1390 3230 z" stroke-linecap="round" />
</g>
		<g transform="matrix(0.13 0 0 -0.13 -166.98 -163.49)"  >
<path style="stroke: none; stroke-width: 1; stroke-dasharray: none; stroke-linecap: butt; stroke-dashoffset: 0; stroke-linejoin: miter; stroke-miterlimit: 4; fill: rgb(0,0,0); fill-rule: nonzero; opacity: 1;" vector-effect="non-scaling-stroke"  transform=" translate(-1325, -3240)" d="M 1315 3240 C 1318 3235 1326 3230 1331 3230 C 1337 3230 1338 3235 1335 3240 C 1332 3246 1324 3250 1319 3250 C 1313 3250 1312 3246 1315 3240 z" stroke-linecap="round" />
</g>
		<g transform="matrix(0.13 0 0 -0.13 198.36 -221.71)"  >
<path style="stroke: none; stroke-width: 1; stroke-dasharray: none; stroke-linecap: butt; stroke-dashoffset: 0; stroke-linejoin: miter; stroke-miterlimit: 4; fill: rgb(0,0,0); fill-rule: nonzero; opacity: 1;" vector-effect="non-scaling-stroke"  transform=" translate(-4065, -3676.5)" d="M 4057 3677 C 4054 3669 4058 3663 4065 3663 C 4072 3663 4076 3669 4073 3677 C 4070 3684 4067 3690 4065 3690 C 4063 3690 4060 3684 4057 3677 z" stroke-linecap="round" />
</g>
		<g transform="matrix(0.13 0 0 -0.13 297.46 -171.49)"  >
<path style="stroke: none; stroke-width: 1; stroke-dasharray: none; stroke-linecap: butt; stroke-dashoffset: 0; stroke-linejoin: miter; stroke-miterlimit: 4; fill: rgb(0,0,0); fill-rule: nonzero; opacity: 1;" vector-effect="non-scaling-stroke"  transform=" translate(-4808.2, -3300)" d="M 4800 3300 C 4800 3295 4805 3290 4811 3290 C 4816 3290 4818 3295 4815 3300 C 4812 3306 4807 3310 4804 3310 C 4802 3310 4800 3306 4800 3300 z" stroke-linecap="round" />
</g>
		<g transform="matrix(0.13 0 0 -0.13 -195.13 -156.21)"  >
<path style="stroke: none; stroke-width: 1; stroke-dasharray: none; stroke-linecap: butt; stroke-dashoffset: 0; stroke-linejoin: miter; stroke-miterlimit: 4; fill: rgb(0,0,0); fill-rule: nonzero; opacity: 1;" vector-effect="non-scaling-stroke"  transform=" translate(-1113.84, -3185)" d="M 1105 3193 C 1107 3183 1109 3172 1109 3168 C 1110 3163 1114 3160 1119 3160 C 1123 3160 1125 3171 1122 3185 C 1120 3199 1114 3210 1110 3210 C 1105 3210 1103 3202 1105 3193 z" stroke-linecap="round" />
</g>
		<g transform="matrix(0.13 0 0 -0.13 -245.38 -56.28)"  >
<path style="stroke: none; stroke-width: 1; stroke-dasharray: none; stroke-linecap: butt; stroke-dashoffset: 0; stroke-linejoin: miter; stroke-miterlimit: 4; fill: rgb(0,0,0); fill-rule: nonzero; opacity: 1;" vector-effect="non-scaling-stroke"  transform=" translate(-750.3, -2425.56)" d="M 1100 2824 C 1100 2785 1115 2765 1159 2745 C 1192 2730 1200 2722 1200 2700 C 1200 2662 1179 2647 1136 2656 C 1112 2660 1100 2658 1100 2651 C 1100 2645 1086 2641 1068 2643 C 1039 2645 1034 2650 1029 2680 C 1024 2709 1022 2711 1021 2688 C 1020 2669 1013 2659 990 2651 C 974 2646 960 2636 960 2630 C 960 2624 955 2622 950 2625 C 944 2629 921 2629 899 2625 L 858 2618 L 889 2599 C 921 2579 931 2550 905 2550 C 897 2550 890 2546 890 2542 C 890 2538 870 2529 845 2522 C 801 2510 773 2481 798 2472 C 814 2467 813 2410 798 2408 C 791 2408 780 2406 775 2406 C 764 2405 720 2364 720 2355 C 720 2353 726 2353 733 2356 C 741 2359 747 2354 747 2346 C 747 2338 744 2332 741 2333 C 685 2357 680 2364 680 2404 C 680 2442 683 2447 723 2469 C 763 2491 765 2494 762 2530 C 758 2565 762 2570 804 2600 C 852 2635 866 2670 830 2667 C 815 2666 811 2660 812 2642 C 815 2622 808 2615 778 2604 C 757 2597 738 2595 735 2600 C 732 2604 735 2610 742 2612 C 748 2614 750 2622 746 2628 C 741 2637 735 2637 724 2626 C 708 2609 682 2615 663 2639 C 655 2650 651 2651 650 2643 C 650 2636 641 2630 630 2630 C 619 2630 610 2636 610 2643 C 610 2652 608 2652 602 2642 C 592 2628 530 2636 530 2652 C 530 2658 521 2660 510 2657 C 493 2653 488 2657 483 2681 C 480 2697 471 2710 463 2710 C 452 2710 450 2706 457 2698 C 462 2691 467 2672 468 2655 C 469 2635 467 2630 461 2638 C 455 2649 451 2647 447 2631 C 444 2619 447 2610 453 2610 C 459 2610 460 2607 456 2603 C 452 2599 439 2608 426 2623 C 413 2638 396 2650 388 2650 C 379 2650 356 2657 336 2665 C 306 2678 300 2685 305 2700 C 311 2720 303 2726 285 2712 C 271 2702 230 2624 230 2607 C 230 2599 224 2580 216 2566 C 208 2551 205 2529 208 2517 C 214 2496 215 2496 218 2520 C 220 2534 226 2550 232 2555 C 240 2562 241 2561 237 2554 C 233 2547 237 2540 245 2537 C 255 2532 257 2524 251 2503 C 241 2469 245 2419 258 2411 C 263 2408 271 2390 275 2373 C 278 2354 288 2340 296 2340 C 304 2340 310 2331 310 2320 C 310 2309 319 2295 330 2288 C 341 2281 350 2269 350 2263 C 350 2239 403 2189 422 2194 C 432 2196 447 2192 455 2183 C 463 2175 474 2172 480 2175 C 485 2178 490 2176 490 2171 C 490 2165 495 2160 500 2160 C 506 2160 510 2166 510 2173 C 510 2181 528 2193 550 2200 C 578 2209 587 2216 578 2222 C 568 2228 570 2230 583 2230 C 595 2230 600 2238 600 2260 C 600 2280 605 2290 615 2290 C 623 2290 630 2285 630 2280 C 630 2273 636 2273 650 2280 C 662 2287 670 2287 670 2281 C 670 2276 679 2272 690 2273 C 701 2274 710 2279 710 2284 C 710 2289 713 2290 716 2287 C 720 2284 731 2285 741 2291 C 754 2297 760 2297 760 2290 C 760 2285 765 2280 771 2280 C 776 2280 779 2284 775 2289 C 772 2294 787 2311 807 2327 C 857 2364 859 2368 861 2415 C 862 2437 864 2447 867 2438 C 869 2428 878 2420 886 2420 C 894 2420 900 2415 900 2409 C 900 2403 925 2412 956 2430 C 1019 2465 1030 2461 1030 2403 C 1030 2385 1034 2370 1039 2370 C 1045 2370 1057 2357 1067 2340 C 1076 2324 1088 2310 1093 2310 C 1098 2310 1097 2316 1091 2323 C 1085 2331 1083 2339 1085 2342 C 1088 2345 1079 2355 1065 2364 C 1045 2377 1040 2388 1042 2415 C 1044 2446 1046 2448 1064 2437 C 1076 2431 1089 2427 1093 2428 C 1098 2429 1099 2421 1095 2410 C 1090 2394 1093 2390 1110 2390 C 1122 2390 1129 2386 1125 2381 C 1118 2368 1135 2359 1153 2366 C 1162 2369 1166 2378 1163 2386 C 1160 2394 1163 2400 1170 2400 C 1176 2400 1179 2404 1176 2408 C 1173 2413 1177 2417 1183 2417 C 1190 2417 1197 2408 1197 2398 C 1199 2377 1136 2325 1118 2333 C 1110 2336 1104 2328 1104 2314 C 1103 2301 1106 2290 1110 2290 C 1114 2290 1115 2279 1112 2265 C 1109 2247 1112 2240 1123 2240 C 1144 2240 1210 2209 1210 2199 C 1210 2188 1156 2193 1148 2205 C 1144 2210 1142 2190 1143 2160 C 1144 2121 1141 2106 1132 2108 C 1126 2109 1120 2105 1120 2099 C 1120 2093 1127 2090 1135 2094 C 1144 2097 1150 2094 1150 2085 C 1150 2077 1146 2070 1141 2070 C 1127 2070 1119 2039 1130 2025 C 1135 2019 1136 2009 1132 2005 C 1128 2000 1131 2000 1138 2004 C 1144 2008 1150 2022 1150 2035 C 1150 2050 1164 2069 1190 2090 C 1230 2121 1231 2124 1229 2177 C 1227 2207 1221 2238 1214 2245 C 1204 2255 1204 2261 1214 2276 C 1225 2292 1225 2297 1214 2308 C 1203 2318 1200 2318 1200 2309 C 1200 2302 1198 2299 1195 2301 C 1186 2311 1214 2370 1228 2370 C 1235 2370 1239 2374 1235 2379 C 1225 2396 1223 2449 1233 2447 C 1238 2446 1244 2453 1245 2463 C 1248 2477 1244 2481 1230 2477 C 1208 2471 1183 2494 1200 2505 C 1206 2508 1208 2515 1205 2519 C 1203 2524 1212 2532 1225 2538 C 1239 2545 1250 2553 1250 2558 C 1250 2570 1220 2595 1196 2604 C 1181 2609 1179 2613 1189 2623 C 1198 2632 1208 2630 1234 2616 C 1253 2606 1273 2600 1278 2604 C 1290 2611 1300 2660 1289 2660 C 1285 2660 1283 2671 1285 2685 C 1288 2718 1282 2717 1268 2683 C 1259 2661 1256 2659 1253 2672 C 1251 2681 1240 2692 1229 2695 C 1203 2703 1205 2714 1235 2734 L 1259 2750 L 1237 2773 C 1223 2787 1207 2794 1193 2792 C 1180 2789 1170 2793 1170 2799 C 1170 2806 1160 2801 1148 2790 L 1125 2769 L 1118 2802 C 1115 2820 1114 2838 1116 2842 C 1119 2847 1116 2850 1111 2850 C 1105 2850 1100 2838 1100 2824 z M 1280 2640 C 1280 2635 1276 2630 1270 2630 C 1265 2630 1260 2635 1260 2640 C 1260 2646 1265 2650 1270 2650 C 1276 2650 1280 2646 1280 2640 z M 1069 2603 C 1098 2585 1110 2569 1110 2553 C 1110 2524 1097 2524 1068 2553 C 1038 2581 1025 2583 1010 2565 C 1003 2557 992 2550 984 2550 C 977 2550 968 2540 964 2528 C 959 2511 956 2510 949 2521 C 936 2545 944 2569 976 2599 C 1013 2635 1019 2636 1069 2603 z M 380 2543 C 380 2532 371 2536 349 2554 C 332 2568 314 2580 309 2580 C 304 2580 300 2587 300 2595 C 300 2607 309 2604 340 2584 C 362 2569 380 2551 380 2543 z M 510 2588 C 510 2582 513 2580 517 2583 C 527 2594 560 2559 560 2538 C 560 2516 556 2516 527 2535 C 513 2544 500 2546 491 2541 C 473 2529 448 2539 457 2554 C 464 2566 419 2531 408 2515 C 404 2510 400 2515 400 2526 C 400 2538 407 2553 415 2560 C 423 2567 428 2575 426 2579 C 423 2583 430 2586 440 2586 C 450 2586 457 2583 454 2579 C 447 2567 477 2549 494 2556 C 513 2563 514 2572 498 2588 C 489 2597 489 2600 498 2600 C 505 2600 510 2595 510 2588 z M 718 2584 C 730 2576 740 2565 740 2559 C 740 2553 736 2552 730 2555 C 716 2564 668 2529 674 2514 C 682 2494 635 2469 608 2479 C 572 2492 571 2551 605 2578 C 635 2602 685 2604 718 2584 z M 496 2515 C 492 2502 494 2501 510 2510 C 527 2519 530 2518 530 2502 C 530 2467 488 2453 432 2469 C 430 2470 432 2476 437 2483 C 441 2489 445 2500 445 2505 C 445 2511 453 2514 462 2512 C 471 2511 481 2514 485 2520 C 495 2536 503 2532 496 2515 z M 550 2480 C 550 2475 545 2470 539 2470 C 534 2470 532 2475 535 2480 C 538 2486 543 2490 546 2490 C 548 2490 550 2486 550 2480 z M 594 2471 C 597 2467 613 2460 630 2457 C 669 2449 669 2425 630 2381 C 613 2363 600 2351 600 2356 C 600 2360 595 2359 589 2353 C 583 2347 571 2344 564 2347 C 556 2350 550 2347 550 2340 C 550 2334 545 2332 538 2336 C 531 2341 530 2339 535 2330 C 540 2322 536 2312 525 2303 C 513 2295 511 2290 519 2290 C 530 2290 530 2287 520 2275 C 509 2262 504 2262 486 2273 C 460 2290 431 2284 455 2266 C 464 2260 473 2243 474 2229 C 476 2207 474 2204 449 2208 C 432 2211 420 2220 416 2234 C 403 2282 409 2298 455 2327 C 498 2353 501 2357 498 2395 C 495 2431 498 2436 535 2457 C 579 2482 586 2484 594 2471 z M 423 2458 C 435 2452 452 2444 460 2440 C 477 2432 487 2370 471 2370 C 465 2370 460 2364 460 2356 C 460 2348 452 2343 443 2345 C 433 2347 422 2349 418 2349 C 414 2350 414 2358 417 2367 C 422 2379 419 2382 407 2377 C 398 2374 390 2375 390 2381 C 390 2387 386 2388 380 2385 C 366 2376 367 2403 382 2418 C 388 2424 390 2433 386 2437 C 382 2441 375 2438 369 2430 C 361 2417 359 2417 350 2430 C 344 2440 340 2441 340 2433 C 340 2426 336 2420 330 2420 C 325 2420 320 2424 320 2429 C 320 2435 353 2453 398 2469 C 399 2470 410 2465 423 2458 z M 1195 2460 C 1198 2455 1197 2450 1191 2450 C 1186 2450 1178 2455 1175 2460 C 1172 2466 1173 2470 1179 2470 C 1184 2470 1192 2466 1195 2460 z M 1160 2315 C 1153 2306 1145 2302 1143 2304 C 1136 2311 1150 2330 1162 2330 C 1168 2330 1168 2324 1160 2315 z M 520 2200 C 501 2187 490 2187 490 2200 C 490 2206 500 2210 513 2210 C 531 2210 532 2208 520 2200 z" stroke-linecap="round" />
</g>
		<g transform="matrix(0.13 0 0 -0.13 -79.64 -110.16)"  >
<path style="stroke: none; stroke-width: 1; stroke-dasharray: none; stroke-linecap: butt; stroke-dashoffset: 0; stroke-linejoin: miter; stroke-miterlimit: 4; fill: rgb(0,0,0); fill-rule: nonzero; opacity: 1;" vector-effect="non-scaling-stroke"  transform=" translate(-1980, -2840)" d="M 1970 2840 C 1970 2835 1975 2830 1980 2830 C 1986 2830 1990 2835 1990 2840 C 1990 2846 1986 2850 1980 2850 C 1975 2850 1970 2846 1970 2840 z" stroke-linecap="round" />
</g>
		<g transform="matrix(0.13 0 0 -0.13 -31.88 -99.08)"  >
<path style="stroke: none; stroke-width: 1; stroke-dasharray: none; stroke-linecap: butt; stroke-dashoffset: 0; stroke-linejoin: miter; stroke-miterlimit: 4; fill: rgb(0,0,0); fill-rule: nonzero; opacity: 1;" vector-effect="non-scaling-stroke"  transform=" translate(-2338.19, -2756.9)" d="M 2330 2754 C 2330 2746 2335 2742 2340 2745 C 2346 2749 2348 2756 2345 2761 C 2336 2775 2330 2772 2330 2754 z" stroke-linecap="round" />
</g>
		<g transform="matrix(0.13 0 0 -0.13 -169.57 -76.75)"  >
<path style="stroke: none; stroke-width: 1; stroke-dasharray: none; stroke-linecap: butt; stroke-dashoffset: 0; stroke-linejoin: miter; stroke-miterlimit: 4; fill: rgb(0,0,0); fill-rule: nonzero; opacity: 1;" vector-effect="non-scaling-stroke"  transform=" translate(-1305.65, -2589.5)" d="M 1300 2590 C 1291 2584 1290 2580 1297 2580 C 1303 2580 1312 2585 1315 2590 C 1323 2602 1319 2602 1300 2590 z" stroke-linecap="round" />
</g>
		<g transform="matrix(0.13 0 0 -0.13 11.03 -58.83)"  >
<path style="stroke: none; stroke-width: 1; stroke-dasharray: none; stroke-linecap: butt; stroke-dashoffset: 0; stroke-linejoin: miter; stroke-miterlimit: 4; fill: rgb(0,0,0); fill-rule: nonzero; opacity: 1;" vector-effect="non-scaling-stroke"  transform=" translate(-2660, -2455)" d="M 2650 2461 C 2650 2456 2655 2448 2660 2445 C 2666 2442 2670 2443 2670 2449 C 2670 2454 2666 2462 2660 2465 C 2655 2468 2650 2467 2650 2461 z" stroke-linecap="round" />
</g>
		<g transform="matrix(0.13 0 0 -0.13 79.72 -47.15)"  >
<path style="stroke: none; stroke-width: 1; stroke-dasharray: none; stroke-linecap: butt; stroke-dashoffset: 0; stroke-linejoin: miter; stroke-miterlimit: 4; fill: rgb(0,0,0); fill-rule: nonzero; opacity: 1;" vector-effect="non-scaling-stroke"  transform=" translate(-3175.56, -2367.4)" d="M 3173 2370 C 3143 2358 3144 2352 3175 2358 C 3189 2360 3200 2366 3200 2371 C 3200 2376 3199 2380 3198 2379 C 3196 2379 3185 2375 3173 2370 z" stroke-linecap="round" />
</g>
		<g transform="matrix(0.13 0 0 -0.13 22.66 -29.09)"  >
<path style="stroke: none; stroke-width: 1; stroke-dasharray: none; stroke-linecap: butt; stroke-dashoffset: 0; stroke-linejoin: miter; stroke-miterlimit: 4; fill: rgb(0,0,0); fill-rule: nonzero; opacity: 1;" vector-effect="non-scaling-stroke"  transform=" translate(-2747.44, -2231.92)" d="M 2730 2240 C 2730 2234 2737 2227 2745 2223 C 2769 2214 2772 2224 2750 2238 C 2737 2246 2730 2246 2730 2240 z" stroke-linecap="round" />
</g>
		<g transform="matrix(0.13 0 0 -0.13 -173.18 16.04)"  >
<path style="stroke: none; stroke-width: 1; stroke-dasharray: none; stroke-linecap: butt; stroke-dashoffset: 0; stroke-linejoin: miter; stroke-miterlimit: 4; fill: rgb(0,0,0); fill-rule: nonzero; opacity: 1;" vector-effect="non-scaling-stroke"  transform=" translate(-1281.22, -1888.83)" d="M 1187 2067 C 1164 2049 1161 2039 1164 2006 C 1166 1985 1174 1964 1181 1959 C 1191 1953 1192 1950 1183 1950 C 1164 1950 1167 1913 1186 1906 C 1197 1902 1201 1892 1198 1875 C 1193 1849 1212 1839 1225 1860 C 1230 1868 1237 1867 1247 1859 C 1259 1848 1259 1845 1245 1838 C 1237 1833 1233 1824 1236 1818 C 1244 1806 1252 1748 1251 1713 C 1250 1686 1252 1685 1292 1706 C 1320 1720 1337 1720 1387 1704 C 1403 1699 1403 1700 1390 1712 C 1372 1729 1355 1755 1336 1798 C 1328 1816 1314 1833 1307 1836 C 1298 1839 1294 1849 1297 1861 C 1300 1871 1297 1880 1291 1880 C 1285 1880 1280 1894 1280 1911 C 1280 1937 1277 1942 1260 1937 C 1244 1933 1242 1935 1249 1948 C 1255 1958 1253 1971 1244 1985 C 1237 1996 1229 2023 1226 2044 C 1223 2065 1220 2084 1218 2086 C 1216 2088 1202 2079 1187 2067 z M 1320 1803 C 1320 1796 1316 1790 1310 1790 C 1305 1790 1301 1794 1303 1799 C 1304 1804 1296 1816 1285 1824 C 1266 1840 1266 1840 1293 1829 C 1308 1822 1320 1811 1320 1803 z" stroke-linecap="round" />
</g>
		<g transform="matrix(0.13 0 0 -0.13 35.83 109.93)"  >
<path style="stroke: none; stroke-width: 1; stroke-dasharray: none; stroke-linecap: butt; stroke-dashoffset: 0; stroke-linejoin: miter; stroke-miterlimit: 4; fill: rgb(0,0,0); fill-rule: nonzero; opacity: 1;" vector-effect="non-scaling-stroke"  transform=" translate(-2867.26, -1174.03)" d="M 3581 1780 C 3580 1757 3529 1690 3512 1690 C 3500 1690 3433 1624 3420 1600 C 3413 1588 3402 1581 3394 1584 C 3377 1591 3376 1579 3393 1560 C 3403 1548 3402 1548 3388 1559 C 3379 1566 3366 1569 3361 1566 C 3356 1562 3345 1566 3338 1573 C 3331 1581 3321 1583 3315 1578 C 3310 1574 3289 1559 3270 1547 C 3242 1529 3234 1517 3232 1487 C 3230 1466 3225 1452 3219 1455 C 3214 1459 3210 1456 3210 1451 C 3210 1445 3196 1440 3178 1440 C 3161 1440 3139 1433 3131 1425 C 3117 1413 3110 1413 3090 1424 C 3064 1437 3033 1428 3017 1402 C 3012 1395 3005 1392 2999 1395 C 2994 1399 2990 1396 2990 1391 C 2990 1385 2981 1380 2969 1380 C 2958 1380 2951 1376 2955 1371 C 2958 1366 2956 1359 2951 1355 C 2945 1352 2943 1343 2946 1336 C 2950 1326 2944 1324 2925 1328 C 2905 1331 2902 1335 2912 1341 C 2919 1346 2920 1350 2914 1350 C 2908 1350 2887 1332 2867 1310 C 2828 1266 2810 1260 2810 1290 C 2810 1302 2803 1310 2794 1310 C 2784 1310 2780 1305 2784 1295 C 2788 1282 2786 1282 2770 1290 C 2744 1304 2741 1303 2747 1279 C 2751 1265 2748 1259 2739 1261 C 2722 1264 2663 1238 2661 1228 C 2661 1223 2660 1215 2660 1209 C 2660 1204 2644 1192 2625 1184 C 2602 1175 2590 1163 2590 1150 C 2590 1125 2564 1124 2552 1148 C 2547 1157 2544 1180 2545 1198 C 2547 1219 2543 1230 2534 1230 C 2526 1230 2521 1227 2522 1223 C 2528 1202 2493 1170 2465 1169 C 2420 1167 2385 1155 2388 1141 C 2389 1134 2385 1130 2378 1132 C 2371 1135 2364 1151 2362 1168 C 2359 1199 2340 1214 2340 1186 C 2340 1178 2332 1169 2321 1165 C 2296 1158 2240 1162 2240 1172 C 2240 1192 2221 1177 2211 1149 C 2197 1107 2180 1121 2180 1176 C 2180 1206 2176 1220 2167 1220 C 2159 1220 2154 1210 2154 1198 C 2155 1178 2150 1175 2115 1175 C 2065 1174 2050 1165 2050 1134 C 2050 1117 2045 1110 2030 1110 C 2019 1110 2010 1106 2010 1101 C 2010 1096 2026 1094 2046 1096 C 2066 1098 2088 1095 2096 1089 C 2103 1083 2114 1081 2120 1085 C 2125 1088 2130 1088 2130 1083 C 2130 1079 2165 1076 2208 1077 C 2250 1078 2308 1079 2335 1078 C 2416 1076 2453 1077 2490 1083 C 2509 1087 2552 1092 2585 1096 C 2657 1104 2745 1139 2730 1154 C 2715 1169 2718 1226 2735 1240 C 2753 1255 2770 1245 2770 1219 C 2770 1178 2821 1153 2834 1187 C 2840 1201 2843 1202 2849 1191 C 2855 1181 2859 1181 2865 1189 C 2870 1198 2875 1198 2886 1189 C 2897 1180 2900 1182 2900 1204 C 2900 1219 2904 1228 2910 1225 C 2915 1222 2933 1226 2950 1235 C 2967 1244 2984 1248 2989 1246 C 2994 1243 3003 1246 3009 1254 C 3016 1262 3030 1266 3043 1263 C 3058 1259 3062 1261 3055 1268 C 3050 1274 3034 1280 3020 1282 C 2993 1285 2983 1313 2995 1357 C 2999 1376 3005 1380 3023 1375 C 3041 1370 3042 1371 3030 1380 C 3018 1389 3018 1391 3029 1388 C 3052 1382 3053 1363 3031 1357 C 3015 1353 3012 1347 3019 1324 C 3023 1308 3031 1295 3036 1295 C 3041 1295 3050 1292 3056 1288 C 3071 1278 3080 1288 3073 1306 C 3070 1314 3074 1320 3081 1321 C 3114 1323 3134 1330 3141 1342 C 3147 1351 3150 1348 3150 1333 C 3150 1298 3168 1306 3172 1342 C 3175 1370 3180 1376 3205 1380 C 3222 1383 3235 1392 3236 1400 C 3238 1435 3241 1441 3250 1435 C 3256 1431 3258 1424 3255 1419 C 3251 1414 3256 1410 3265 1410 C 3274 1410 3279 1406 3276 1401 C 3267 1388 3298 1367 3315 1374 C 3325 1377 3328 1376 3325 1370 C 3321 1364 3321 1346 3325 1330 C 3330 1309 3339 1300 3360 1295 C 3390 1288 3390 1289 3389 1201 L 3389 1147 L 3415 1164 C 3448 1186 3470 1178 3470 1146 C 3470 1116 3455 1104 3446 1127 C 3440 1141 3437 1142 3431 1131 C 3421 1115 3422 1025 3433 1014 C 3445 1001 3441 978 3426 983 C 3419 986 3406 980 3397 969 C 3388 959 3383 950 3385 950 C 3395 950 3368 905 3353 897 C 3342 890 3341 885 3351 874 C 3360 863 3357 854 3332 832 C 3281 787 3271 780 3256 780 C 3234 780 3226 761 3245 753 C 3259 748 3256 742 3226 714 C 3193 684 3191 679 3201 651 C 3207 634 3217 619 3223 618 C 3259 614 3267 615 3285 624 C 3303 633 3323 634 3363 631 C 3371 630 3371 627 3360 620 C 3348 612 3348 610 3363 604 C 3372 601 3377 594 3374 589 C 3371 584 3374 580 3379 580 C 3405 580 3388 621 3352 644 C 3332 657 3309 674 3302 683 C 3281 707 3291 751 3319 762 C 3340 769 3342 768 3338 745 C 3335 732 3336 723 3340 725 C 3344 728 3362 725 3380 719 C 3404 710 3409 705 3398 698 C 3388 691 3388 687 3398 683 C 3404 681 3410 672 3410 664 C 3410 648 3426 645 3435 660 C 3449 683 3470 669 3470 636 C 3470 618 3477 597 3485 590 C 3493 583 3500 581 3500 586 C 3500 590 3506 586 3513 575 C 3522 564 3532 560 3540 565 C 3547 569 3556 567 3561 559 C 3569 547 3571 547 3579 560 C 3584 568 3587 578 3584 582 C 3578 591 3598 630 3608 629 C 3630 625 3640 632 3640 649 C 3640 660 3643 675 3646 684 C 3651 698 3654 698 3676 683 C 3698 669 3700 669 3694 683 C 3691 691 3682 701 3675 704 C 3666 707 3662 722 3663 746 C 3665 780 3669 785 3698 792 C 3726 800 3729 803 3720 820 C 3709 841 3690 847 3690 831 C 3690 825 3674 828 3655 836 C 3636 843 3607 850 3590 850 C 3553 850 3548 880 3583 903 C 3604 918 3604 919 3588 936 C 3571 953 3570 953 3570 937 C 3570 928 3566 920 3561 920 C 3551 920 3535 977 3539 998 C 3541 1012 3503 1015 3498 1001 C 3497 996 3487 997 3477 1004 C 3462 1016 3464 1019 3505 1034 C 3552 1052 3556 1061 3540 1110 C 3533 1131 3532 1128 3531 1092 C 3530 1055 3528 1051 3516 1063 C 3508 1070 3500 1092 3499 1111 C 3496 1140 3498 1145 3515 1142 C 3526 1140 3531 1143 3525 1147 C 3509 1160 3486 1203 3500 1195 C 3509 1189 3509 1193 3500 1209 C 3494 1221 3490 1236 3493 1243 C 3498 1260 3478 1278 3460 1273 C 3450 1270 3450 1272 3462 1280 C 3476 1288 3477 1296 3470 1315 C 3465 1329 3463 1347 3466 1355 C 3470 1363 3467 1370 3460 1370 C 3453 1370 3450 1376 3453 1384 C 3463 1409 3428 1412 3406 1388 C 3394 1376 3386 1362 3387 1359 C 3388 1355 3380 1350 3370 1347 C 3336 1338 3346 1379 3388 1415 C 3423 1447 3426 1448 3448 1434 C 3477 1415 3487 1421 3465 1444 C 3450 1458 3451 1463 3475 1505 C 3490 1530 3500 1557 3497 1565 C 3493 1574 3496 1577 3505 1574 C 3514 1570 3520 1578 3522 1597 C 3524 1621 3530 1625 3558 1628 C 3576 1630 3594 1638 3597 1646 C 3600 1654 3607 1660 3614 1660 C 3620 1660 3633 1667 3643 1674 C 3660 1687 3659 1689 3631 1706 C 3613 1717 3600 1733 3599 1745 C 3599 1756 3595 1774 3590 1785 C 3582 1803 3581 1803 3581 1780 z M 3356 1545 C 3381 1532 3382 1530 3364 1530 C 3342 1530 3325 1506 3335 1489 C 3339 1484 3333 1483 3323 1487 C 3306 1493 3306 1492 3323 1472 C 3337 1457 3340 1445 3334 1428 C 3330 1415 3327 1401 3329 1396 C 3330 1391 3324 1393 3315 1400 C 3302 1411 3302 1415 3312 1422 C 3321 1429 3318 1430 3302 1427 C 3272 1420 3250 1444 3250 1485 C 3250 1515 3255 1522 3288 1539 C 3308 1550 3326 1559 3326 1560 C 3327 1560 3341 1553 3356 1545 z M 3486 1541 C 3483 1536 3471 1530 3460 1527 C 3443 1523 3441 1524 3451 1536 C 3463 1551 3495 1556 3486 1541 z M 3467 948 C 3464 941 3462 946 3462 960 C 3462 974 3464 979 3467 973 C 3469 966 3469 954 3467 948 z M 3476 915 C 3480 907 3486 903 3491 906 C 3496 909 3503 904 3507 895 C 3514 876 3494 859 3474 867 C 3456 874 3448 853 3460 830 C 3468 814 3468 812 3456 816 C 3439 823 3423 801 3438 791 C 3462 776 3433 759 3396 765 C 3367 771 3362 775 3371 786 C 3377 794 3379 812 3375 832 C 3368 861 3371 867 3406 897 C 3449 933 3468 938 3476 915 z M 3615 781 C 3618 780 3625 780 3630 780 C 3636 780 3640 760 3640 736 C 3640 698 3636 688 3611 671 C 3576 646 3562 644 3581 666 C 3591 679 3591 683 3581 690 C 3573 694 3568 710 3568 724 C 3568 760 3536 777 3518 752 C 3497 722 3483 719 3477 741 C 3473 758 3479 765 3513 779 C 3542 792 3564 795 3583 789 C 3598 785 3613 781 3615 781 z M 3440 690 C 3440 685 3438 680 3436 680 C 3433 680 3428 685 3425 690 C 3422 696 3424 700 3429 700 C 3435 700 3440 696 3440 690 z" stroke-linecap="round" />
</g>
		<g transform="matrix(0.13 0 0 -0.13 -160.66 52.59)"  >
<path style="stroke: none; stroke-width: 1; stroke-dasharray: none; stroke-linecap: butt; stroke-dashoffset: 0; stroke-linejoin: miter; stroke-miterlimit: 4; fill: rgb(0,0,0); fill-rule: nonzero; opacity: 1;" vector-effect="non-scaling-stroke"  transform=" translate(-1373.52, -1617.82)" d="M 1414 1682 C 1416 1678 1411 1666 1403 1655 C 1388 1635 1388 1635 1393 1658 C 1399 1684 1397 1685 1376 1664 C 1364 1652 1360 1652 1359 1662 C 1359 1669 1355 1666 1350 1655 L 1341 1635 L 1340 1655 C 1339 1674 1339 1674 1325 1657 C 1313 1641 1314 1634 1332 1603 C 1349 1574 1351 1567 1339 1560 C 1332 1555 1328 1549 1331 1546 C 1334 1543 1358 1559 1383 1583 C 1420 1617 1430 1632 1430 1658 C 1430 1676 1425 1690 1419 1690 C 1414 1690 1411 1687 1414 1682 z" stroke-linecap="round" />
</g>
		<g transform="matrix(0.13 0 0 -0.13 -140.17 149.95)"  >
<path style="stroke: none; stroke-width: 1; stroke-dasharray: none; stroke-linecap: butt; stroke-dashoffset: 0; stroke-linejoin: miter; stroke-miterlimit: 4; fill: rgb(0,0,0); fill-rule: nonzero; opacity: 1;" vector-effect="non-scaling-stroke"  transform=" translate(-1537.43, -871)" d="M 1447 1599 C 1453 1593 1469 1582 1482 1576 C 1511 1561 1514 1517 1486 1512 C 1475 1509 1470 1512 1474 1519 C 1478 1526 1475 1528 1467 1524 C 1459 1521 1449 1524 1445 1530 C 1433 1550 1409 1521 1420 1500 C 1425 1490 1427 1472 1425 1459 C 1419 1427 1430 1365 1440 1380 C 1444 1386 1445 1401 1443 1413 C 1439 1431 1446 1439 1475 1453 C 1524 1476 1539 1474 1550 1444 C 1556 1430 1560 1417 1560 1414 C 1560 1407 1535 1415 1528 1424 C 1525 1429 1522 1416 1523 1395 C 1524 1374 1526 1362 1528 1369 C 1535 1390 1548 1380 1546 1355 C 1544 1342 1547 1333 1551 1336 C 1556 1339 1560 1336 1560 1329 C 1560 1322 1568 1323 1585 1334 C 1598 1343 1616 1350 1625 1350 C 1643 1350 1645 1323 1628 1317 C 1620 1315 1627 1303 1648 1286 C 1668 1268 1680 1249 1680 1233 C 1680 1208 1680 1208 1706 1225 C 1721 1234 1730 1238 1726 1232 C 1723 1227 1727 1220 1734 1217 C 1745 1213 1747 1200 1744 1173 C 1733 1088 1733 1061 1744 1056 C 1750 1054 1747 1051 1738 1051 C 1720 1050 1712 1027 1718 993 C 1721 979 1736 967 1766 955 C 1801 942 1810 934 1810 914 C 1810 885 1785 882 1777 910 C 1770 939 1758 935 1732 894 C 1709 859 1690 854 1681 881 C 1677 893 1680 893 1696 880 C 1714 866 1714 866 1701 883 C 1683 906 1671 905 1660 878 C 1652 858 1651 860 1652 892 C 1655 941 1636 942 1632 893 C 1629 860 1610 819 1610 846 C 1610 851 1601 856 1590 856 C 1579 856 1570 850 1570 844 C 1570 830 1532 818 1528 831 C 1526 836 1504 837 1478 834 C 1452 830 1433 824 1435 820 C 1438 816 1434 812 1427 813 C 1389 814 1369 809 1376 799 C 1380 791 1375 790 1359 794 C 1346 797 1341 797 1348 794 C 1382 778 1346 742 1300 746 C 1281 747 1255 742 1242 734 C 1215 716 1200 723 1200 753 C 1200 769 1194 764 1179 733 C 1167 709 1154 690 1149 690 C 1139 690 1121 677 1091 647 C 1071 627 1066 582 1082 563 C 1099 542 1141 548 1162 575 C 1173 589 1187 600 1195 600 C 1202 600 1213 607 1220 615 C 1231 628 1230 636 1212 659 L 1191 688 L 1233 675 C 1255 669 1276 658 1278 651 C 1280 645 1286 642 1290 645 C 1295 648 1297 656 1294 663 C 1289 678 1378 676 1393 661 C 1398 656 1408 654 1415 657 C 1423 659 1436 650 1445 636 C 1469 600 1480 604 1478 648 C 1477 691 1466 701 1429 693 C 1408 689 1399 693 1391 708 C 1372 743 1378 760 1410 767 C 1427 770 1443 777 1446 781 C 1449 786 1458 790 1466 790 C 1474 790 1478 785 1475 780 C 1472 775 1475 770 1483 770 C 1495 770 1497 760 1494 725 C 1491 700 1492 680 1494 680 C 1497 680 1515 687 1534 697 C 1567 712 1569 716 1564 750 C 1559 784 1562 790 1600 818 L 1642 848 L 1675 829 C 1722 801 1735 784 1715 776 C 1706 773 1702 774 1705 780 C 1708 786 1706 790 1701 790 C 1695 790 1690 783 1690 775 C 1690 766 1683 757 1675 754 C 1667 750 1660 741 1660 733 C 1660 725 1655 722 1649 726 C 1641 730 1641 735 1649 743 C 1666 760 1662 776 1639 776 C 1624 776 1620 771 1624 757 C 1626 747 1626 741 1623 744 C 1616 750 1580 712 1580 698 C 1580 694 1586 690 1593 690 C 1600 689 1598 684 1588 676 C 1578 669 1570 658 1570 651 C 1570 645 1566 640 1561 640 C 1556 640 1550 630 1546 618 C 1543 605 1537 599 1533 605 C 1523 618 1490 621 1490 608 C 1490 603 1506 583 1525 564 C 1544 546 1560 525 1560 518 C 1560 509 1557 510 1550 520 C 1543 531 1540 524 1540 493 C 1540 470 1537 450 1533 447 C 1528 445 1530 444 1536 446 C 1542 447 1547 435 1547 419 C 1547 403 1544 390 1540 390 C 1536 390 1534 380 1535 367 C 1536 355 1529 328 1518 307 C 1507 286 1504 270 1510 270 C 1516 270 1519 266 1515 261 C 1512 256 1508 238 1506 221 C 1503 195 1506 190 1524 189 C 1541 189 1539 186 1513 174 C 1489 164 1482 156 1487 143 C 1492 129 1495 129 1498 141 C 1505 162 1522 170 1539 161 C 1554 152 1556 154 1600 193 C 1621 211 1625 224 1624 265 C 1623 320 1613 360 1599 360 C 1594 360 1590 369 1590 380 C 1590 391 1586 400 1580 400 C 1575 400 1571 412 1572 426 C 1574 444 1579 450 1590 446 C 1641 430 1650 428 1650 438 C 1650 444 1645 452 1640 455 C 1633 459 1633 467 1640 480 C 1645 490 1647 519 1644 544 C 1639 594 1649 602 1684 575 C 1707 558 1724 555 1715 570 C 1712 576 1716 580 1724 580 C 1733 580 1740 573 1740 564 C 1740 552 1746 555 1761 575 C 1779 597 1781 604 1769 612 C 1758 620 1758 623 1768 627 C 1778 631 1778 635 1769 646 C 1760 657 1760 663 1769 674 C 1778 685 1778 689 1768 693 C 1759 697 1760 699 1771 699 C 1818 702 1843 642 1812 600 L 1793 575 L 1829 577 C 1849 578 1867 579 1869 579 C 1871 580 1868 586 1863 593 C 1858 599 1852 624 1851 647 C 1850 680 1853 691 1870 700 C 1881 706 1890 718 1890 726 C 1890 734 1886 738 1880 735 C 1875 732 1870 734 1870 741 C 1870 749 1864 748 1852 737 C 1831 718 1806 728 1820 750 C 1833 770 1832 783 1820 775 C 1806 766 1808 790 1824 821 C 1843 858 1834 941 1809 947 C 1794 951 1793 956 1801 978 C 1808 996 1808 1006 1801 1008 C 1787 1013 1787 1040 1800 1040 C 1807 1040 1807 1047 1800 1060 C 1794 1072 1784 1078 1777 1074 C 1770 1070 1775 1078 1787 1090 C 1806 1110 1811 1111 1825 1100 C 1846 1082 1855 1094 1851 1136 C 1850 1155 1852 1170 1857 1169 C 1861 1168 1887 1168 1913 1169 C 1949 1170 1960 1174 1958 1184 C 1956 1192 1959 1200 1965 1202 C 1978 1206 1988 1149 1978 1128 C 1972 1115 1973 1110 1984 1110 C 1994 1110 1999 1125 2002 1165 C 2003 1195 2002 1221 1998 1221 C 1993 1222 1986 1224 1980 1225 C 1975 1226 1959 1228 1946 1229 C 1930 1230 1918 1240 1908 1261 C 1894 1290 1892 1290 1887 1270 C 1884 1257 1877 1251 1870 1255 C 1864 1259 1854 1257 1847 1251 C 1839 1245 1829 1245 1820 1250 C 1812 1256 1809 1260 1814 1260 C 1819 1260 1810 1270 1795 1282 C 1772 1300 1764 1301 1748 1291 C 1731 1280 1729 1282 1732 1307 C 1735 1330 1731 1335 1712 1335 C 1699 1335 1680 1347 1669 1360 C 1653 1381 1649 1383 1640 1370 C 1631 1357 1629 1358 1631 1375 C 1632 1386 1628 1409 1621 1425 L 1608 1455 L 1595 1430 C 1586 1414 1580 1411 1580 1420 C 1576 1465 1551 1508 1536 1493 C 1533 1489 1530 1501 1530 1519 C 1530 1553 1522 1564 1478 1593 C 1447 1612 1430 1616 1447 1599 z M 1904 1215 C 1900 1207 1890 1200 1880 1200 C 1858 1200 1828 1172 1835 1159 C 1839 1154 1836 1150 1831 1150 C 1825 1150 1820 1161 1820 1174 C 1820 1192 1829 1201 1858 1213 C 1906 1233 1910 1233 1904 1215 z M 1800 820 C 1776 805 1763 809 1784 825 C 1795 833 1806 837 1809 834 C 1812 831 1808 825 1800 820 z M 1550 778 C 1550 766 1532 768 1525 780 C 1521 786 1514 788 1509 785 C 1504 782 1503 786 1506 794 C 1511 806 1515 807 1531 797 C 1541 791 1550 782 1550 778 z M 1705 681 C 1702 676 1710 670 1722 668 C 1746 665 1762 620 1740 620 C 1734 620 1731 616 1735 611 C 1738 606 1736 599 1730 595 C 1725 592 1720 596 1720 605 C 1720 614 1715 630 1709 641 C 1701 657 1695 659 1685 650 C 1667 635 1654 656 1670 675 C 1683 691 1715 696 1705 681 z M 1215 630 C 1218 625 1216 620 1211 620 C 1205 620 1200 625 1200 630 C 1200 636 1202 640 1204 640 C 1207 640 1212 636 1215 630 z M 1690 620 C 1690 615 1685 610 1679 610 C 1674 610 1672 615 1675 620 C 1678 626 1683 630 1686 630 C 1688 630 1690 626 1690 620 z" stroke-linecap="round" />
</g>
		<g transform="matrix(0.13 0 0 -0.13 -148.41 60.95)"  >
<path style="stroke: none; stroke-width: 1; stroke-dasharray: none; stroke-linecap: butt; stroke-dashoffset: 0; stroke-linejoin: miter; stroke-miterlimit: 4; fill: rgb(0,0,0); fill-rule: nonzero; opacity: 1;" vector-effect="non-scaling-stroke"  transform=" translate(-1464.29, -1556.64)" d="M 1460 1560 C 1452 1555 1448 1548 1451 1545 C 1455 1542 1463 1546 1470 1555 C 1484 1572 1481 1574 1460 1560 z" stroke-linecap="round" />
</g>
		<g transform="matrix(0.13 0 0 -0.13 -89.33 116.2)"  >
<path style="stroke: none; stroke-width: 1; stroke-dasharray: none; stroke-linecap: butt; stroke-dashoffset: 0; stroke-linejoin: miter; stroke-miterlimit: 4; fill: rgb(0,0,0); fill-rule: nonzero; opacity: 1;" vector-effect="non-scaling-stroke"  transform=" translate(-1907.54, -1142.06)" d="M 1890 1147 C 1890 1128 1900 1120 1916 1127 C 1927 1131 1928 1136 1919 1146 C 1904 1164 1890 1164 1890 1147 z" stroke-linecap="round" />
</g>
		<g transform="matrix(0.13 0 0 -0.13 172.56 173.18)"  >
<path style="stroke: none; stroke-width: 1; stroke-dasharray: none; stroke-linecap: butt; stroke-dashoffset: 0; stroke-linejoin: miter; stroke-miterlimit: 4; fill: rgb(0,0,0); fill-rule: nonzero; opacity: 1;" vector-effect="non-scaling-stroke"  transform=" translate(-3875.36, -712.02)" d="M 3730 829 C 3730 822 3738 811 3748 803 C 3757 795 3760 791 3754 794 C 3747 797 3740 791 3737 780 C 3734 769 3728 761 3723 762 C 3719 764 3714 761 3713 755 C 3711 750 3718 745 3728 745 C 3751 745 3772 731 3765 720 C 3762 715 3776 713 3796 714 C 3822 717 3829 715 3821 707 C 3815 701 3810 690 3810 683 C 3810 670 3859 641 3893 634 C 3905 632 3916 626 3918 622 C 3919 617 3927 605 3934 595 C 3946 578 3948 580 3954 613 C 3958 634 3968 651 3978 654 C 3988 657 4001 674 4007 691 C 4015 710 4023 719 4031 715 C 4039 710 4040 714 4035 730 C 4031 742 4027 759 4026 766 C 4021 799 4010 789 4010 751 C 4010 722 4005 708 3994 703 C 3978 697 3957 718 3966 731 C 3968 735 3966 741 3960 745 C 3954 749 3952 756 3956 761 C 3959 766 3958 770 3953 769 C 3932 765 3920 771 3920 785 C 3920 799 3932 804 3953 801 C 3957 801 3960 805 3960 810 C 3960 825 3933 833 3918 824 C 3911 819 3895 817 3883 818 C 3872 820 3859 817 3856 812 C 3848 798 3767 809 3754 826 C 3740 843 3730 844 3730 829 z" stroke-linecap="round" />
</g>
		<g transform="matrix(0.13 0 0 -0.13 -88.25 168.94)"  >
<path style="stroke: none; stroke-width: 1; stroke-dasharray: none; stroke-linecap: butt; stroke-dashoffset: 0; stroke-linejoin: miter; stroke-miterlimit: 4; fill: rgb(0,0,0); fill-rule: nonzero; opacity: 1;" vector-effect="non-scaling-stroke"  transform=" translate(-1915.25, -746.61)" d="M 1912 745 C 1912 729 1914 723 1917 733 C 1919 742 1919 756 1917 763 C 1914 769 1912 762 1912 745 z" stroke-linecap="round" />
</g>
		<g transform="matrix(0.13 0 0 -0.13 302.41 180.47)"  >
<path style="stroke: none; stroke-width: 1; stroke-dasharray: none; stroke-linecap: butt; stroke-dashoffset: 0; stroke-linejoin: miter; stroke-miterlimit: 4; fill: rgb(0,0,0); fill-rule: nonzero; opacity: 1;" vector-effect="non-scaling-stroke"  transform=" translate(-4845.25, -660.18)" d="M 4842 660 C 4842 646 4844 641 4847 648 C 4849 654 4849 666 4847 673 C 4844 679 4842 674 4842 660 z" stroke-linecap="round" />
</g>
		<g transform="matrix(0.13 0 0 -0.13 80.75 187.71)"  >
<path style="stroke: none; stroke-width: 1; stroke-dasharray: none; stroke-linecap: butt; stroke-dashoffset: 0; stroke-linejoin: miter; stroke-miterlimit: 4; fill: rgb(0,0,0); fill-rule: nonzero; opacity: 1;" vector-effect="non-scaling-stroke"  transform=" translate(-3183.3, -605.43)" d="M 3178 601 C 3201 568 3205 565 3208 583 C 3211 596 3203 610 3188 622 C 3152 650 3148 643 3178 601 z" stroke-linecap="round" />
</g>
		<g transform="matrix(0.13 0 0 -0.13 -121.59 216.45)"  >
<path style="stroke: none; stroke-width: 1; stroke-dasharray: none; stroke-linecap: butt; stroke-dashoffset: 0; stroke-linejoin: miter; stroke-miterlimit: 4; fill: rgb(0,0,0); fill-rule: nonzero; opacity: 1;" vector-effect="non-scaling-stroke"  transform=" translate(-1665.25, -390.18)" d="M 1662 390 C 1662 371 1664 363 1667 373 C 1669 382 1669 398 1667 408 C 1664 417 1662 409 1662 390 z" stroke-linecap="round" />
</g>
		<g transform="matrix(0.13 0 0 -0.13 1.7 251.57)"  >
<path style="stroke: none; stroke-width: 1; stroke-dasharray: none; stroke-linecap: butt; stroke-dashoffset: 0; stroke-linejoin: miter; stroke-miterlimit: 4; fill: rgb(0,0,0); fill-rule: nonzero; opacity: 1;" vector-effect="non-scaling-stroke"  transform=" translate(-2590.17, -127)" d="M 2576 131 C 2573 126 2579 120 2591 117 C 2607 113 2609 114 2599 126 C 2586 142 2583 143 2576 131 z" stroke-linecap="round" />
</g>
		<g transform="matrix(0.13 0 0 -0.13 111.03 255.56)"  >
<path style="stroke: none; stroke-width: 1; stroke-dasharray: none; stroke-linecap: butt; stroke-dashoffset: 0; stroke-linejoin: miter; stroke-miterlimit: 4; fill: rgb(0,0,0); fill-rule: nonzero; opacity: 1;" vector-effect="non-scaling-stroke"  transform=" translate(-3410, -97)" d="M 3400 101 C 3400 95 3405 88 3410 85 C 3416 82 3420 86 3420 94 C 3420 103 3416 110 3410 110 C 3405 110 3400 106 3400 101 z" stroke-linecap="round" />
</g>
</g>
</g>
</svg>